<?xml version="1.0" encoding="utf-8"?>
<!-- Generator: Adobe Illustrator 28.0.0, SVG Export Plug-In . SVG Version: 6.00 Build 0)  -->
<svg version="1.1" id="Layer_1" xmlns="http://www.w3.org/2000/svg" xmlns:xlink="http://www.w3.org/1999/xlink" x="0px" y="0px"
	 viewBox="0 0 200 200" style="enable-background:new 0 0 200 200;" xml:space="preserve">
<style type="text/css">
	.st0{fill:#2AAAE2;stroke:#FFFFFF;stroke-width:1.3928;stroke-miterlimit:10;}
	.st1{fill:#3362AB;stroke:#FFFFFF;stroke-width:1.3928;stroke-miterlimit:10;}
	.st2{fill:#36A3DC;stroke:#FFFFFF;stroke-width:1.3928;stroke-miterlimit:10;}
</style>
<g>
	<g>
		<path class="st0" d="M127.6,32.7l-24.1-8.6v23.6c8.5,0.4,16.6,2.2,24.1,5.2V32.7z"/>
		<path class="st1" d="M96.6,6.9l-24.1,8.6V53c7.5-3,15.6-4.8,24.1-5.2V6.9z"/>
	</g>
	<path class="st0" d="M140.2,63.5L140.2,63.5c-3.5-2.4-7.3-4.5-11.3-6.3c-0.1,0-0.2-0.1-0.2-0.1c-0.3-0.1-0.7-0.3-1-0.4v0
		c0,0,0,0,0,0c-0.4-0.2-0.7-0.3-1.1-0.5c-0.2-0.1-0.4-0.2-0.6-0.3c-0.6-0.2-1.2-0.5-1.8-0.7c-0.5-0.2-1-0.4-1.6-0.5
		c-0.3-0.1-0.7-0.2-1-0.3c-0.9-0.3-1.8-0.6-2.8-0.8l-0.1,0c-0.4-0.1-0.8-0.2-1.3-0.3c-0.6-0.2-1.3-0.3-1.9-0.5
		c-0.5-0.1-1-0.2-1.5-0.3c-0.7-0.1-1.4-0.3-2.1-0.4c-0.5-0.1-0.9-0.1-1.4-0.2c-0.8-0.1-1.6-0.2-2.4-0.3c-0.4,0-0.7-0.1-1.1-0.1
		c-1.1-0.1-2.2-0.2-3.3-0.2c-0.1,0-0.2,0-0.3,0v0c-0.1,0-0.2,0-0.3,0c-1.1,0-2.1-0.1-3.2-0.1c-5.1,0-10.1,0.6-14.9,1.6
		c-0.6,0.1-1.1,0.3-1.7,0.4c-0.6,0.1-1.1,0.3-1.7,0.4c-0.3,0.1-0.7,0.2-1,0.3c-0.3,0.1-0.6,0.2-0.9,0.3c-0.2,0.1-0.4,0.1-0.6,0.2
		c-0.6,0.2-1.1,0.4-1.7,0.5c-1.7,0.6-3.4,1.2-5.1,1.9c0,0,0,0,0,0v0c-0.4,0.2-0.8,0.3-1.2,0.5c0,0,0,0,0,0c-2.9,1.3-5.7,2.8-8.4,4.5
		v0c-0.7,0.4-1.4,0.9-2.1,1.4c7.2-2.8,15-4.4,23.1-4.4c31.5,0,57.6,23.3,61.9,53.7c0.4,2.9,0.6,5.9,0.6,8.9c0,5.4-0.7,10.6-2,15.6
		c-1.1,3.4-2.6,6.6-4.4,9.6v2.4v32c18.9-13,30.9-34.7,30.9-58.6C171,98.2,159.1,76.5,140.2,63.5z"/>
	<path class="st1" d="M69.3,186c0.5,0.2,0.9,0.5,1.4,0.7c0,0,0.1,0,0.1,0c8,3.5,16.8,5.5,25.9,5.9V78.8c-9.1,0.7-17.4,4.3-24.1,9.8
		V160c-11.9-8.6-19.3-22.6-19.3-37.9c0-15.3,7.5-29.3,19.3-37.9v0c5-3.6,10.7-6.3,16.9-7.7c0.3-0.1,0.6-0.1,0.8-0.2
		c0.8-0.2,1.6-0.3,2.4-0.4c0.3,0,0.6-0.1,0.8-0.1c0.9-0.1,1.8-0.2,2.7-0.3c2.8-0.2,5.6-0.2,8.4,0.1c0.7,0.1,1.3,0.1,2,0.2
		c0.4,0.1,0.9,0.1,1.3,0.2c0.6,0.1,1.3,0.2,1.9,0.3c0.4,0.1,0.8,0.2,1.1,0.3c6.1,1.5,11.8,4.1,16.7,7.7v0c0.2,0.2,0.4,0.3,0.6,0.5
		c0.1,0.1,0.2,0.2,0.3,0.3c0.6,0.5,1.3,1,1.9,1.5c0.1,0.1,0.3,0.2,0.4,0.4c0.6,0.5,1.1,1,1.7,1.5c0.2,0.2,0.3,0.3,0.5,0.5
		c0.5,0.5,1,1,1.4,1.5c0.2,0.2,0.4,0.4,0.6,0.7c0.4,0.5,0.8,0.9,1.2,1.4c0.2,0.3,0.5,0.6,0.7,0.9c0.3,0.4,0.6,0.9,1,1.3
		c0.3,0.4,0.5,0.7,0.8,1.1c0.2,0.4,0.5,0.7,0.7,1.1c0.2,0.4,0.5,0.7,0.7,1.1v0c2.7,4.4,4.6,9.3,5.7,14.4
		c-4.3-30.4-30.4-53.7-61.9-53.7c-8.2,0-16,1.6-23.1,4.4c-19.4,12.9-31.7,34.9-31.7,59.1C29.1,149.6,45.1,174.3,69.3,186z"/>
	<path class="st2" d="M127.6,187.1V160v-23.2V88.6c-6.7-5.5-15-9.1-24.1-9.8v113.8C112,192.2,120.1,190.3,127.6,187.1z"/>
</g>
</svg>
