<?xml version="1.0" encoding="utf-8"?>
<!-- Generator: Adobe Illustrator 28.0.0, SVG Export Plug-In . SVG Version: 6.00 Build 0)  -->
<svg version="1.1" id="Layer_1" xmlns="http://www.w3.org/2000/svg" xmlns:xlink="http://www.w3.org/1999/xlink" x="0px" y="0px"
	 viewBox="0 0 200 200" style="enable-background:new 0 0 200 200;" xml:space="preserve">
<style type="text/css">
	.st0{fill:#115389;stroke:#FFFFFF;stroke-width:1.3691;stroke-miterlimit:10;}
	.st1{fill:#B8B7B8;stroke:#FFFFFF;stroke-width:1.3691;stroke-miterlimit:10;}
	.st2{fill:url(#SVGID_1_);stroke:#FFFFFF;stroke-width:1.3691;stroke-miterlimit:10;}
	
		.st3{fill:url(#SVGID_00000091011755396964487280000000930181172303348143_);stroke:#FFFFFF;stroke-width:1.3691;stroke-miterlimit:10;}
	.st4{fill:#D9D9D9;stroke:#FFFFFF;stroke-width:1.3691;stroke-miterlimit:10;}
	.st5{fill:#3B4147;stroke:#FFFFFF;stroke-width:1.3691;stroke-miterlimit:10;}
	.st6{fill:#59585B;stroke:#FFFFFF;stroke-width:1.3691;stroke-miterlimit:10;}
	.st7{fill:#D8D8D8;stroke:#FFFFFF;stroke-width:1.3691;stroke-miterlimit:10;}
	.st8{fill:#FDFDFD;stroke:#FFFFFF;stroke-width:1.3691;stroke-miterlimit:10;}
	.st9{fill:#A6A5A6;stroke:#FFFFFF;stroke-width:1.3691;stroke-miterlimit:10;}
	.st10{fill:#FFFFFF;stroke:#FFFFFF;stroke-width:1.3691;stroke-miterlimit:10;}
</style>
<g>
	<path class="st0" d="M111.9,162.2c-34.1,0-61.8-27.7-61.8-61.8c0-34.1,27.7-61.8,61.8-61.8c16.3,0,31.6,6.3,43.3,17.7l-14.7,15
		c-7.7-7.5-17.8-11.7-28.6-11.7c-22.5,0-40.8,18.3-40.8,40.8s18.3,40.8,40.8,40.8c18.9,0,34.8-12.9,39.5-30.3h-34.2v-21h56.6v10.5
		C173.7,134.5,146,162.2,111.9,162.2z"/>
	<g>
		<path class="st1" d="M86.9,128.6c2.5,0.9,6.6,2.7,8.7,3.3c-0.9,0.5-2.3,1.3-3.1,1.9C89.9,132.1,88.6,131.3,86.9,128.6z"/>
		
			<linearGradient id="SVGID_1_" gradientUnits="userSpaceOnUse" x1="817.6262" y1="-379.1477" x2="810.8062" y2="-362.9168" gradientTransform="matrix(0.4883 0 0 -0.4883 -297.8203 -46.1836)">
			<stop  offset="0" style="stop-color:#969596"/>
			<stop  offset="1" style="stop-color:#B4B3B4"/>
		</linearGradient>
		<path class="st2" d="M95.6,131.9c2.1,0.5,4.8,1.2,6.8,1.9l3.2,1.2c0.7,0.2,0.7,0.1,1.2,0.5c0,0.7-0.3,1.3-0.2,1.9
			c-5.4-0.5-9.3-0.6-14-3.6C93.3,133.2,94.7,132.4,95.6,131.9z"/>
		
			<linearGradient id="SVGID_00000177450008904369760520000005322307912714613141_" gradientUnits="userSpaceOnUse" x1="819.7064" y1="-326.4232" x2="874.5544" y2="-260.6957" gradientTransform="matrix(0.4883 0 0 -0.4883 -297.8203 -46.1836)">
			<stop  offset="0" style="stop-color:#5A5B5E"/>
			<stop  offset="1" style="stop-color:#87888A"/>
		</linearGradient>
		
			<path style="fill:url(#SVGID_00000177450008904369760520000005322307912714613141_);stroke:#FFFFFF;stroke-width:1.3691;stroke-miterlimit:10;" d="
			M77,89c0.3-0.9,0.7-1.8,1.1-2.6c4.2-9.1,12.9-17.4,22.4-20.8c1.9-0.7,7.7-2.5,9.4-1.6c0.3,1.7,0.1,1.2,1.6,2.2
			c0.4,0.9,0.3,0.9,0.2,1.8c-0.8,1.5-4.8,2.7-6.6,3.5c-0.4,1.7-0.2,3-1.5,4l-0.6-0.2c-0.9-1-1.1-2.2-1.5-3.5
			c-1.5,0.3-2.7,0.6-4.2,0.6c-1.4,1.5-1.2,2-1.3,4.1c2,0.1,2.4,0.5,4.2,1.1l0.5,0.6c-2.5,2.5-0.4,3.8-3.2,5.1
			c-1.7,0.8-3.4,4.7-3,6.3c4.4-1.3,13.8-0.1,18.9,0c-0.1,6.3,0.3,13.1,0.5,19.5l-0.1,1.3c0.4,1.7,0.4,2.7,0.5,4.4
			c10.1,1.7,19.5,1.5,29.7,1.9c-0.8,4.2-1.9,6.4-4.2,9.9c-0.3,0.4-1.2,1.7-1.5,2.1c-1.4-0.5-3-1.1-4.4-1.5
			c-14.5-4.4-35.2-14.6-48-22.9c-3.1-2-7.5-5.6-10.4-8C75.4,93.1,76.3,91.7,77,89z"/>
		<path class="st4" d="M75.2,96.2c0.2-3,1.1-4.5,1.8-7.2c1.7,2.1,1.5,4.1,2.7,6.7c0-2.4-0.1-4-0.3-6.4c0.4,0.7,1.6,2.5,1.7,3.1
			c1.6,7.2,2.9,5.4,9,7.9l1.2,3.1c1.1,0.3,2.6,0.9,3.6,0.5l1.1-0.1c0.9-0.5,1.5-0.9,2.4-1.5c2.7,0.4,6.1,0.6,8.7,2.4
			c0.2,0.2,0.7,1.5,0.8,1.8c1.5,2.4,3.1,2.2,5.7,2.5l-0.1,1.3c0.4,1.7,0.4,2.7,0.5,4.4c10.1,1.7,19.5,1.5,29.7,1.9
			c-0.8,4.2-1.9,6.4-4.2,9.9c-0.3,0.4-1.2,1.7-1.5,2.1c-1.4-0.5-3-1.1-4.4-1.5c-14.5-4.4-35.2-14.6-48-22.9
			C82.5,102.2,78.1,98.5,75.2,96.2z"/>
		<path class="st5" d="M98.4,102.4c2.7,0.4,6.1,0.6,8.7,2.4c0.2,0.2,0.7,1.5,0.8,1.8c-0.6,0.8-0.6,0.8-1.5,1.1
			c-2.7-0.2-10.4,0.7-11.5-2c0.1-0.9,0.5-1.2,1.2-1.9C97,103.3,97.5,102.9,98.4,102.4z"/>
		<path class="st1" d="M133.5,127.1l0.5-1.2c1.2-3,1.3-6.3,2.3-8.7c0.5,2.1-1,6.9-1.6,9c1.4,0,3.5-0.2,4.7,0.3
			c-0.3,0.4-1.2,1.7-1.5,2.1C136.6,128.1,134.9,127.5,133.5,127.1z"/>
		<path class="st6" d="M107.9,106.6c1.5,2.4,3.1,2.2,5.7,2.5l-0.1,1.3c-0.5,0.6-0.5,0.6-1.2,0.9c-1.9,0.1-4.2-2.3-5.9-3.6
			C107.3,107.4,107.3,107.4,107.9,106.6z"/>
		<path class="st7" d="M94.1,89.5c4.4-1.3,13.8-0.1,18.9,0c-0.1,6.3,0.3,13.1,0.5,19.5c-2.6-0.2-4.2,0-5.7-2.5
			c-0.1-0.4-0.6-1.7-0.8-1.8c-2.5-1.8-5.9-2-8.7-2.4c-0.9,0.6-1.5,1-2.4,1.5l-1.1,0.1c-3.6-1.5-2.7-3.7-4-7c-0.8-2.1-2.2,0.7-4.4,0
			c-2.8-3.7,0.3-9,5.1-7.1c1.4,0.6,2.1,3.7,2.6,5.1c1-0.2,2.3-0.1,3.3,0c-0.8-0.8-2.3-2.4-2.6-3.4C94.5,90.5,95,90.9,94.1,89.5z"/>
		<path class="st6" d="M97.4,95c1.1,0.9,2,1.7,3.2,2.5C96.6,99.7,97,97,94,95.6l0.2-0.6C95.1,94.8,96.4,94.9,97.4,95z"/>
		<path class="st8" d="M93.9,72.7c1-0.8,2-0.5,3.2-0.3c-1.4,1.5-1.2,2-1.3,4.1l-0.4,0.1c-0.5,1-1.5,2.7-2.2,3.6
			c-0.1-0.3-0.2-0.5-0.2-0.8c0.1-2.4-2.2-2.5-3.4-4.1c-0.3-0.4-0.2-0.3-0.1-1C90.6,72.9,92.1,72.9,93.9,72.7z"/>
		<path class="st9" d="M93.9,72.7c1-0.8,2-0.5,3.2-0.3c-1.4,1.5-1.2,2-1.3,4.1l-0.4,0.1C95.2,75.1,95.2,73.6,93.9,72.7z"/>
		<path class="st8" d="M119.7,76.3c0.1-1.2,0.1-8.6-0.2-9.4c-0.5-0.3-1-0.5-1.6-0.7l0.8,0.3L119,66c1.4-0.2,3.3,0,4.8,0.1
			c2.8-0.1,9.2,2.4,10.9,4.6l0.2,0.2c2.5,1.2,5.8,3.5,7.1,6.1l0.8,0.4c1.3,0.9,2.3,3.7,3,5.3c-2.6,0-5.6,0.1-8.2,0l-0.3,0
			c-8,0.2-15.9,0.1-24,0.3l-0.2,6.6c-5.1-0.1-14.5-1.3-18.9,0c-0.4-1.6,1.3-5.6,3-6.3c2.8-1.3,0.7-2.6,3.2-5.1l-0.5-0.6
			c2.9-0.1,5.5-0.5,8.3-0.8C112,76.5,115.9,76.3,119.7,76.3z"/>
		<path class="st8" d="M142.8,77.4c1.3,0.9,2.3,3.7,3,5.3c-2.6,0-5.6,0.1-8.2,0c-0.1-1.9-0.4-3.5-0.9-5.3
			C138.5,77.5,141,77.7,142.8,77.4z"/>
		<path class="st8" d="M134.9,70.9c2.5,1.2,5.8,3.5,7.1,6.1l-5.6-0.3C135.9,74.7,135.4,72.8,134.9,70.9z"/>
		<path class="st4" d="M119.7,76.3l1,0c0,1.5-0.5,4-0.6,5.7c-0.3-2.1-0.3-3-0.3-5.1c-5.1,0.1-10.2,0.3-15.3,0.9
			c-1.4,0.2-2.8,0.4-4.1,0.3l-0.5-0.6c2.9-0.1,5.5-0.5,8.3-0.8C112,76.5,115.9,76.3,119.7,76.3z"/>
		<path class="st4" d="M119.7,76.3c0.1-1.2,0.1-8.6-0.2-9.4c-0.5-0.3-1-0.5-1.6-0.7l0.8,0.3L119,66c1.4-0.2,3.3,0,4.8,0.1
			c-1,0.7-1.9,0.6-3.1,0.6c0,1.9-0.3,8,0,9.7L119.7,76.3z"/>
		<path class="st4" d="M134.7,70.7l0.2,0.2c0.5,1.9,1,3.9,1.5,5.8L142,77l0.8,0.4c-1.7,0.3-4.3,0.2-6.1-0.1c0.4,1.9,0.8,3.4,0.9,5.3
			l-0.3,0C136.8,79.6,134.3,73,134.7,70.7z"/>
	</g>
	<path class="st10" d="M185.9,127.9c-1.2,0.3-2.4,0.5-3.6,0.8c-1.3,9.6-13,14.2-33.6,10.8c-34.1-5.6-78-30.5-97.3-54.9
		c-7.9-10-10.4-18.3-8.1-24.2c-0.8-0.8-1.3-1.9-1.3-3.1c0-2.2,1.6-3.9,3.7-4.3c0-0.1,0-0.1,0-0.2c0-2.8,0.8-5.5,2.1-7.9
		C16.8,42,6.9,56.3,30.1,82.1c27.6,30.6,86.1,59.7,125.2,64C179.2,148.7,189.5,141,185.9,127.9z"/>
	<g>
		<path class="st7" d="M155.3,146c-39.1-4.3-97.6-33.4-125.2-64C19.8,70.6,16,61.4,17.7,55c-5.8,6-3.4,16.7,9.5,31
			c27,29.9,84.1,58.3,122.3,62.5c11.6,1.3,19.9,0.1,24.9-3C169.6,146.6,163.2,146.9,155.3,146z"/>
	</g>
	<path class="st0" d="M176.8,109.2c10.8,18.5-0.2,29.6-28.9,24.9c-33.3-5.4-76.2-29.8-95.1-53.6c-18-22.8-7.2-36.6,23.5-31.8
		c0.3-0.3,0.7-0.6,1-0.9c-4-1.2-8-2.4-11.9-3.3C23.1,34.6,5.7,48.8,32.1,78c27,29.9,84.1,58.3,122.3,62.5
		C185.1,143.9,192.8,130,176.8,109.2z"/>
</g>
</svg>
