<?xml version="1.0" encoding="utf-8"?>
<!-- Generator: Adobe Illustrator 28.0.0, SVG Export Plug-In . SVG Version: 6.00 Build 0)  -->
<svg version="1.1" id="Layer_1" xmlns="http://www.w3.org/2000/svg" xmlns:xlink="http://www.w3.org/1999/xlink" x="0px" y="0px"
	 viewBox="0 0 200 200" style="enable-background:new 0 0 200 200;" xml:space="preserve">
<style type="text/css">
	.st0{fill-rule:evenodd;clip-rule:evenodd;fill:#FFFFFF;}
	.st1{fill-rule:evenodd;clip-rule:evenodd;fill:url(#SVGID_1_);}
</style>
<g>
	<path class="st0" d="M88.8,105.5c-3.1,0.7-6.2,1.2-9.2,1.7c-9.9,1.4-20.1,1.9-30,0.7h0l0,0c13.6,0,26.7-2,40.4-8.6
		c-4.7,1-10.3,1.4-16.7,1.3v-0.1c0-9.2,3.6-17.3,9.5-22.8h0c-0.1,0-0.3,0-0.4,0c-10.3,1-21.8,1.3-31.9-1.5c-0.5-0.1-0.9-0.3-1.4-0.4
		c6.7,0.5,13.5,0.3,19.8-0.3c5.5-0.5,11-1.3,16.5-2.4h0h0h0l0,0h0.1h0h0l0,0h0h0l0,0h0h0.1h0h0l0,0h0h0h0l0,0h0h0h0.1h0h0h0l0,0h0h0
		h0l0.1,0h0h0l0,0h0h0h0l0,0h0h0h0l0,0h0h0l0,0h0h0h0.1v0h0h0h0l0,0h0h0h0h0h0h0l0,0l0.2,0c7.4-1.1,14.8-2.7,21.9-4.9
		c7.1-2.2,14.5-5.2,21-9c1.6,1.5,3.8,2.4,6.2,2.4c5.1,0,9.2-4.1,9.2-9.2c0-5.1-4.1-9.2-9.2-9.2c-5.1,0-9.2,4.1-9.2,9.2
		c0,0.9,0.1,1.8,0.4,2.6c-6.1,3.7-13.1,6.4-19.8,8.5c-2.1,0.6-4.2,1.3-6.3,1.8l-0.3,0.1h0l-0.3,0.1l-0.1,0l-0.2,0.1l-0.2,0l-0.1,0
		l-0.3,0.1l0,0l-0.3,0.1l-0.1,0l-0.3,0.1l-0.1,0l-0.2,0l-0.3,0.1l-0.1,0l-0.3,0.1h0l-0.3,0.1L98,65.8l-0.1,0l-0.3,0.1h0L97.2,66
		l-0.1,0l-0.2,0l-0.2,0.1l-0.1,0l-0.3,0.1L96,66.2l-0.1,0l-0.2,0l-0.2,0l-0.1,0L95,66.4h0l-0.3,0.1l-0.1,0l-0.2,0l-0.2,0l-0.1,0
		l-0.3,0.1h0l-0.3,0.1l-0.1,0l-0.2,0l-0.2,0l-0.2,0l-0.3,0l0,0l-0.3,0h0L91.8,67l-0.2,0l-0.2,0l-0.3,0l-0.1,0l-0.3,0.1l-0.3,0
		l-0.1,0l-0.2,0l-0.2,0l-0.1,0l-0.3,0.1l-0.3,0l-0.1,0l-0.2,0l-0.2,0l-0.1,0l-0.3,0l-0.3,0.1h-0.1l-0.2,0l-0.2,0h-0.1l-0.3,0h0
		l-0.3,0l-0.1,0l-0.3,0l-0.2,0H86l-0.3,0h0L85.3,68h-0.1l-0.3,0l-0.1,0h-0.2l-0.3,0l-0.1,0l-0.3,0h0l-0.3,0l-0.1,0h-0.2l-0.3,0
		l-0.1,0l-0.3,0h0l-0.3,0l-0.1,0l-0.2,0l-0.2,0h-0.1l-0.3,0l-0.2,0l-0.2,0H81h-0.1l-0.2,0l-0.1,0h-0.1l-0.2,0l-0.2,0h0h-0.2l-0.2,0
		h0l-0.1,0h-0.2l-0.1,0h-0.1l-0.2,0l-0.2,0h0l-0.2,0h-0.2l0,0h-0.1H78l-0.4,0l-0.1,0h0l-0.2,0h-0.2h0l-0.2,0l-0.2,0h-0.1h-0.1
		l-0.2,0h-0.2h0l-0.2,0l-0.2,0h-0.2h-0.2h-0.1h-0.1l-0.2,0h-0.1h-0.1l-0.2,0h-0.2h0l-0.2,0H74h-0.1h-0.1l-0.2,0h-0.1h0h-0.2L73,69
		h-0.2h-0.2h-0.1l-0.1,0h-0.2h-0.1H72h-0.4h0l-0.2,0h-0.2h-0.1H71h-0.2h-0.1h-0.1h-0.2h-0.2h0H70h-0.2h0h-0.1h-0.2h-0.1h-0.1H69
		c0.9-0.1,1.7-0.1,2.6-0.2c9.7-1,19.4-2.9,28.7-5.8c8-2.5,16.1-5.7,23.1-10.2l0.2-0.1c0-0.3,0-0.5,0-0.8c0-1.9,0.4-3.7,1.1-5.4
		c-6.9-2.4-14.6-3.7-23.5-3.7c-20.9,0-38.4,9.5-48.9,24.2c-3.7-1-10.1-3.3-11.1-7.4c-0.8-3.4,1-5.9,4-7.7c-5.7,0.4-15.3,13,4.3,19.3
		c-4.8,8.4-7.6,18.2-7.6,28.7v0.3c0,2.1,0.1,4.1,0.3,6.1c-0.3-0.1-0.6-0.1-0.8-0.2c-26.3-6.5-21.7-26.7,1.4-34
		c-31.5,6.6-33.3,31.8-3,39.5c8.5,1.9,17.7,2.7,26.9,2.5c-7.3,1-15,1.6-22.7,1.5c1.6,6,4.2,11.7,7.7,16.8c16.6,3.4,35.6,1.8,52-1.7
		h0h0h0h0h0h0h0h0h0h0h0h0l0,0h0h0h0h0h0h0h0h0h0h0h0h0h0h0h0h0h0c-0.2,0-0.4,0-0.6,0h-0.2c-0.1,0-0.3,0-0.4,0h-0.2
		c-0.2,0-0.4,0-0.5,0h-0.3l-0.3,0c-11.2-0.8-20.6-7.3-24.8-17.5c1.6-0.2,3.2-0.4,4.7-0.6c3.4-0.5,6.8-1.1,10.2-1.8
		c2-0.4,4-0.9,6-1.5l0,0c1.6,1.9,4,3,6.7,3c4.8,0,8.8-3.9,8.8-8.8c0-4.9-3.9-8.8-8.8-8.8c-4.9,0-8.8,3.9-8.8,8.8c0,0.1,0,0.3,0,0.4
		C92.6,104.6,90.7,105.1,88.8,105.5z M133.6,51.9c0,1.9,1.5,3.4,3.4,3.4c1.8,0,3.4-1.5,3.4-3.4c0-1.9-1.5-3.4-3.4-3.4
		C135.1,48.5,133.6,50,133.6,51.9z M130.5,63.7c-5.9,3.3-12.2,5.8-18.6,7.8c5.9,1.7,10.9,4.7,16,9L141,64.7c-1.3,0.4-2.6,0.6-4,0.6
		C134.6,65.3,132.4,64.7,130.5,63.7z M159.4,103c-3,1.8-6.3,3.6-9.8,5.3V90.8h-6.1h-7h-25.7c4.4,2.6,7.4,7.4,7.4,12.9
		c0,4.5-2,8.5-5.1,11.3l9.6,0v10.7c2-0.7,4.1-1.5,6.1-2.3c7-2.9,14.6-6.7,20.7-11.6C153.6,108.8,156.9,105.8,159.4,103z
		 M103.2,106.9c1.8,0,3.2-1.4,3.2-3.2c0-1.8-1.4-3.2-3.2-3.2c-1.8,0-3.2,1.4-3.2,3.2C100,105.5,101.4,106.9,103.2,106.9z"/>
	
		<linearGradient id="SVGID_1_" gradientUnits="userSpaceOnUse" x1="183.6786" y1="94.2285" x2="35.042" y2="58.3409" gradientTransform="matrix(1 0 0 -1 0 202)">
		<stop  offset="0" style="stop-color:#EF6207"/>
		<stop  offset="0.5216" style="stop-color:#EF8F05"/>
		<stop  offset="1" style="stop-color:#F0BC02"/>
	</linearGradient>
	<path class="st1" d="M26.6,113.7c-7.6,12.8,9.2,21,20.5,23.8c14.9,3.7,32.1,3.2,47.2,1c28-4.1,48.7-11.9,69.4-31.4
		c-0.7-1.3-1.1-2.9-1.1-4.5c0-5.3,4.3-9.6,9.6-9.6c5.3,0,9.6,4.3,9.6,9.6c0,5.4-4.3,9.6-9.6,9.6c-1.6,0-3.1-0.4-4.5-1.1
		c-3.2,3-14.4,12.2-18.2,14.5c0,0,0,0,0,0.1v14.5c-11.6,9.6-27.8,16.9-47.7,16.9c-11,0-21.2-2.5-29.9-6.9c1.8-0.2,3.7-0.4,5.5-0.7
		c11.3-1.7,22.6-4.4,33.3-8.4c0,0,0,0,0-0.1c-5.2,1.3-10.5,2.3-15.7,3.1c-15.8,2.3-33.8,2.6-49.4-1.2
		C15.2,135.7,20.7,117.3,26.6,113.7z M172.2,99.4c1.8,0,3.2,1.4,3.2,3.2c0,1.8-1.4,3.2-3.2,3.2c-1.8,0-3.2-1.4-3.2-3.2
		C169,100.9,170.4,99.4,172.2,99.4z"/>
</g>
</svg>
