<?xml version="1.0" encoding="utf-8"?>
<!-- Generator: Adobe Illustrator 28.0.0, SVG Export Plug-In . SVG Version: 6.00 Build 0)  -->
<svg version="1.1" id="Layer_1" xmlns="http://www.w3.org/2000/svg" xmlns:xlink="http://www.w3.org/1999/xlink" x="0px" y="0px"
	 viewBox="0 0 200 200" style="enable-background:new 0 0 200 200;" xml:space="preserve">
<style type="text/css">
	.st0{fill:#FFFFFF;}
	.st1{fill:#81B53E;stroke:#FFFFFF;stroke-width:0.626;stroke-miterlimit:10;}
</style>
<g>
	<path class="st0" d="M135.2,36.4l5.6,5.3L97.6,82c-3.1,2.9-7.9,2.7-10.8-0.3l-3.2-3.3c-4.4-4.6-11.7-4.8-16.3-0.4L45.9,98.4
		c-1.3,1.2-3.4,0.2-3.2-1.6c2.1-23.3,21.9-41.6,45.9-41.6c9,0,17.4,2.6,24.5,7L127.3,49C114.5,39.6,98,34.7,80.4,36.9
		C50,40.6,26,65.4,23.6,95.7c-0.6,7.7,0.1,15.1,2.1,22.1c0.8,2.8,1.7,5.5,2.8,8.1c2.1,4.9,8.5,6,12.3,2.4l6.8-6.5l23.2-22.2
		c2.3-2.2,6-2.1,8.2,0.2l7,7.4c2.9,3,7.7,3.2,10.8,0.3l80-74.5L135.2,36.4z"/>
	<path class="st1" d="M131.5,118.8C125,135,109.4,146.6,91,147.4c-1,0.1-1.9,0.1-2.9,0.1c-17,0-31.8-9.2-39.7-22.8l-6.2,6
		c-4.5,4.3-4.7,11.5-0.4,16c1.6,1.6,3.2,3.2,5,4.6c11.4,9.4,26,15.1,41.9,15.1c31.9,0,58.5-22.8,64.1-52.7L131.5,118.8z"/>
</g>
</svg>
