<?xml version="1.0" encoding="utf-8"?>
<!-- Generator: Adobe Illustrator 28.0.0, SVG Export Plug-In . SVG Version: 6.00 Build 0)  -->
<svg version="1.1" id="Layer_1" xmlns="http://www.w3.org/2000/svg" xmlns:xlink="http://www.w3.org/1999/xlink" x="0px" y="0px"
	 viewBox="0 0 200 200" style="enable-background:new 0 0 200 200;" xml:space="preserve">
<style type="text/css">
	.st0{fill:#FFFFFF;}
	.st1{fill:#DAAD1D;}
	.st2{fill:#B7A52E;}
</style>
<g>
	<g>
		<g>
			<path class="st0" d="M91.6,136.7h14.3v6.7h-23V99.9h8.7V136.7z"/>
			<path class="st0" d="M112.7,103.3c-1-1-1.5-2.2-1.5-3.6c0-1.5,0.5-2.7,1.5-3.6c1-1,2.3-1.5,3.8-1.5s2.8,0.5,3.8,1.5
				c1,1,1.5,2.2,1.5,3.6c0,1.5-0.5,2.7-1.5,3.6c-1,1-2.3,1.5-3.8,1.5S113.8,104.3,112.7,103.3z M120.9,108.9v34.4h-8.7v-34.4H120.9z
				"/>
			<path class="st0" d="M146,116h-6v27.3h-8.8V116h-3.9v-7.1h3.9v-1.7c0-4.2,1.2-7.3,3.6-9.3s6-2.9,10.9-2.8v7.3
				c-2.1,0-3.6,0.3-4.4,1.1c-0.8,0.7-1.2,2.1-1.2,4v1.4h6V116z"/>
		</g>
	</g>
	<g>
		<path class="st1" d="M48.8,99.9l0.2-0.4c0,0,9-2.9,19.1,0.5l-19.3,43.3L10.5,56.7l19.3,0L48.8,99.9z"/>
		<path class="st2" d="M50.6,93.2c0,0,10.1-4.3,21.2-0.6l20.7-36l-49.2,0v17.6h17.8L50.6,93.2z"/>
	</g>
	<path class="st1" d="M177.7,137.4c0-3.3,2.7-6,5.9-6c3.2,0,5.9,2.7,5.9,5.9c0,3.3-2.6,5.9-5.9,5.9
		C180.3,143.3,177.7,140.7,177.7,137.4z"/>
	<path class="st1" d="M167.5,137.4c0,3.3-2.6,6-5.9,6c-3.3,0-5.9-2.6-5.9-5.9c0-3.3,2.6-6,5.9-6
		C164.9,131.5,167.5,134.1,167.5,137.4z"/>
	<path class="st2" d="M187.3,121.8c0.5-0.8,0.2-2.1-0.4-2.6c-0.9-0.6-2.1-0.6-2.6,0.3c-4.5,5.3-12.5,6.2-18.1,1.8
		c2.3-2.1,21.1-17.8,21.1-17.8c0.2-0.3,0.5-0.9,0.5-1.1c0-0.6-0.3-0.9-0.5-1.2c-0.7-0.9-1.6-1.8-2.5-2.7c-3.5-2.7-7.6-4.1-12.1-3.5
		c-4.5,0.3-8.4,2.3-11,5.9c-3,3.3-4.1,7.8-3.9,12.2c0.6,4.4,2.7,8.3,5.9,11c0.8,0.6,1.6,1.2,2.4,1.7c5.4,0,10.9,0,16.3,0
		C184.3,124.6,185.9,123.3,187.3,121.8z M163.8,118.6c-1.5-2.4-2.3-4.8-2.3-7.4c0-3,0.9-5.7,2.9-8c2.1-2.7,5.3-4.5,8.6-4.7
		c3.6-0.3,6.9,0.6,9.6,3c0.3,0.3,0.5,0.3,0.9,0.5C181,104.1,165.9,116.4,163.8,118.6z"/>
	<path class="st2" d="M164.5,125.6c-1.4,0-2.8,0-4.3,0c-2,0-3.7-1.2-4.1-3c-0.1-0.4-0.2-0.7-0.2-1.1c-0.3-1.6-0.5-3.3-0.8-5
		c0,0,0,0,0,0l-3.8-23.7c-0.1-0.8-0.3-1.7-0.4-2.5c-0.5-3.6-3-5.8-6.6-5.8c-1.9,0-3.8,0-5.7,0c-0.6,0-1.1,0.1-1.5,0.7
		c0,0.2,0,0.5,0,0.7c0.3,0.6,0.8,0.7,1.5,0.7c2,0,4,0,6,0c2.1,0,3.8,1.4,4.2,3.5c0.4,2.6,0.8,5.2,1.2,7.8c1.2,7.9,2.6,15.8,3.7,23.7
		c0.6,4.3,3.8,6.2,7.1,6.1c4.1,0,8.1-0.1,12.2-0.1c-2.3-0.2-4.6-0.9-6.8-2.1C165.7,125.6,165.1,125.6,164.5,125.6z"/>
	<path class="st2" d="M166.2,125.6c2.1,1.2,4.4,1.9,6.8,2.1c0.9,0,1.8,0,2.7,0c2.4-0.2,4.7-0.9,6.9-2.1
		C177.1,125.6,171.7,125.6,166.2,125.6z"/>
</g>
</svg>
