<?xml version="1.0" encoding="utf-8"?>
<!-- Generator: Adobe Illustrator 28.0.0, SVG Export Plug-In . SVG Version: 6.00 Build 0)  -->
<svg version="1.1" id="Layer_1" xmlns="http://www.w3.org/2000/svg" xmlns:xlink="http://www.w3.org/1999/xlink" x="0px" y="0px"
	 viewBox="0 0 200 200" style="enable-background:new 0 0 200 200;" xml:space="preserve">
<style type="text/css">
	.st0{fill:#FFFFFF;stroke:#FFFFFF;stroke-width:0.6457;stroke-miterlimit:10;}
	.st1{fill:#D3A400;stroke:#FFFFFF;stroke-width:0.6457;stroke-miterlimit:10;}
	.st2{fill:#AE9B0A;stroke:#FFFFFF;stroke-width:0.6457;stroke-miterlimit:10;}
	.st3{fill:#FFFFFF;}
	.st4{fill:url(#SVGID_1_);stroke:#FFFFFF;stroke-width:0.6457;stroke-miterlimit:10;}
</style>
<g>
	<g>
		<g>
			<path class="st0" d="M87.1,136.8h15.7v7.5H77.1V95.2h9.9V136.8z"/>
			<path class="st0" d="M111,91.2c1.2-1.2,2.6-1.8,4.2-1.8c1.7,0,3.1,0.6,4.3,1.8c1.2,1.2,1.8,2.6,1.8,4.3c0,1.7-0.6,3.1-1.8,4.3
				c-1.2,1.2-2.6,1.8-4.3,1.8c-1.6,0-3-0.6-4.2-1.8c-1.2-1.2-1.8-2.6-1.8-4.3C109.3,93.8,109.9,92.3,111,91.2z M120.2,105.4v38.9
				h-9.9v-38.9H120.2z"/>
			<path class="st0" d="M148.3,113.4h-6.2v30.9h-9.8v-30.9H128v-8.1h4.2v-2.2c0-4.7,1.2-8.1,3.7-10.3c2.5-2.2,6.4-3.2,11.7-3.2V98
				c-2.1,0-3.5,0.4-4.4,1.2c-0.8,0.8-1.3,2.1-1.3,4v2.2h6.2V113.4z"/>
		</g>
	</g>
	<g>
		<path class="st1" d="M43.6,99.8l0.2-0.4c0,0,10.2-3.3,21.6,0.6L43.6,149L0.2,51L22,51L43.6,99.8z"/>
		<path class="st2" d="M45.5,92.3c0,0,11.5-4.8,24-0.6L92.9,51l-55.6,0V71h20.1L45.5,92.3z"/>
	</g>
	<g>
		<g>
			<g>
				<path class="st3" d="M161.2,138.5c-2.1-1.4-4-3.5-5.5-5.9c-5.7-9-3.1-19.5,5.8-25.2c8.8-5.6,19.1-3.5,25,5.9
					c0.4,0.6,0.8,1.4,1.2,2.2l-23.6,14.9c1.7,2.3,4.9,4.7,7.4,5.9C171.6,136.3,166.9,138.8,161.2,138.5z M161.1,125.8l17.1-10.8
					c-3.3-4-8.5-4.9-13.1-1.9C160.5,115.9,159,120.9,161.1,125.8z"/>
			</g>
		</g>
		<path class="st3" d="M178.2,115l-30,19.1c0,0,4.6,4.1,12.5-1.8l27-16.8L178.2,115z"/>
		<linearGradient id="SVGID_1_" gradientUnits="userSpaceOnUse" x1="169.9992" y1="143.0623" x2="196.4533" y2="117.3586">
			<stop  offset="0" style="stop-color:#FF8000"/>
			<stop  offset="0.5031" style="stop-color:#FFA100"/>
			<stop  offset="1" style="stop-color:#FFCF00"/>
		</linearGradient>
		<path class="st4" d="M156.8,138.2c0,0,11.8,8.5,32.4-12.8l-4.5-3.6l15.3-3l-1.1,13.9l-3.1-2.5C195.7,130.2,178,156.2,156.8,138.2z
			"/>
	</g>
</g>
</svg>
