<?xml version="1.0" encoding="utf-8"?>
<!-- Generator: Adobe Illustrator 27.0.0, SVG Export Plug-In . SVG Version: 6.00 Build 0)  -->
<svg version="1.1" id="Layer_1" xmlns="http://www.w3.org/2000/svg" xmlns:xlink="http://www.w3.org/1999/xlink" x="0px" y="0px"
	 viewBox="0 0 626.89 288.12" style="enable-background:new 0 0 626.89 288.12;" xml:space="preserve">
<g>
	<g>
		<g>
			<g>
				<path d="M76.67,244.92c0,11.21-9.08,20.29-20.29,20.29c-11.21,0-20.29-9.08-20.29-20.29c0-11.2,9.08-20.28,20.29-20.28
					C67.59,224.63,76.67,233.71,76.67,244.92z"/>
			</g>
			<g>
				<path d="M129.23,244.92c0,9.71-7.87,17.58-17.58,17.58c-9.71,0-17.58-7.87-17.58-17.58c0-9.71,7.87-17.58,17.58-17.58
					C121.36,227.34,129.23,235.21,129.23,244.92z"/>
			</g>
			<g>
				<path d="M183.14,244.92c0,8.97-7.26,16.23-16.23,16.23c-8.96,0-16.23-7.27-16.23-16.23c0-8.96,7.27-16.23,16.23-16.23
					C175.88,228.69,183.14,235.96,183.14,244.92z"/>
			</g>
			<g>
				<path d="M235.7,244.92c0,7.47-6.06,13.53-13.52,13.53c-7.47,0-13.52-6.05-13.52-13.53c0-7.47,6.05-13.52,13.52-13.52
					C229.65,231.39,235.7,237.45,235.7,244.92z"/>
			</g>
			<g>
				<path d="M91.13,196.5c0,9.71-7.87,17.58-17.58,17.58c-9.72,0-17.58-7.87-17.58-17.58c0-9.71,7.87-17.58,17.58-17.58
					C83.25,178.92,91.13,186.79,91.13,196.5z"/>
			</g>
			<g>
				<path d="M136.76,196.5c0,8.22-6.67,14.88-14.88,14.88c-8.22,0-14.88-6.66-14.88-14.88c0-8.22,6.66-14.88,14.88-14.88
					C130.09,181.63,136.76,188.29,136.76,196.5z"/>
			</g>
			<g>
				<path d="M175.62,196.5c0,6.72-5.45,12.17-12.17,12.17c-6.72,0-12.17-5.45-12.17-12.17c0-6.72,5.45-12.17,12.17-12.17
					C170.17,184.33,175.62,189.78,175.62,196.5z"/>
			</g>
			<g>
				<path d="M215.84,196.5c0,5.98-4.85,10.82-10.82,10.82c-5.98,0-10.82-4.84-10.82-10.82c0-5.98,4.84-10.82,10.82-10.82
					C210.99,185.69,215.84,190.53,215.84,196.5z"/>
			</g>
			<g>
				<path d="M111.49,148.43c0,8.22-6.66,14.88-14.88,14.88c-8.22,0-14.88-6.66-14.88-14.88c0-8.21,6.66-14.87,14.88-14.87
					C104.83,133.56,111.49,140.22,111.49,148.43z"/>
			</g>
			<g>
				<path d="M151.45,148.43c0,6.72-5.45,12.17-12.17,12.17c-6.73,0-12.17-5.45-12.17-12.17c0-6.72,5.45-12.17,12.17-12.17
					C146.01,136.26,151.45,141.71,151.45,148.43z"/>
			</g>
			<g>
				<path d="M191.41,148.43c0,5.23-4.24,9.47-9.47,9.47c-5.23,0-9.47-4.24-9.47-9.47c0-5.23,4.24-9.46,9.47-9.46
					C187.18,138.97,191.41,143.21,191.41,148.43z"/>
			</g>
			<g>
				<path d="M130.36,100.59c0,6.72-5.45,12.17-12.17,12.17c-6.72,0-12.17-5.45-12.17-12.17c0-6.72,5.45-12.17,12.17-12.17
					C124.91,88.42,130.36,93.87,130.36,100.59z"/>
			</g>
			<g>
				<path d="M168.49,100.6c0,4.48-3.63,8.12-8.11,8.12c-4.48,0-8.11-3.63-8.11-8.12c0-4.48,3.63-8.11,8.11-8.11
					C164.86,92.48,168.49,96.11,168.49,100.6z"/>
			</g>
			<g>
				<path d="M148.75,53.01c0,5.23-4.24,9.47-9.47,9.47c-5.23,0-9.47-4.24-9.47-9.47c0-5.23,4.24-9.47,9.47-9.47
					C144.51,43.54,148.75,47.78,148.75,53.01z"/>
			</g>
		</g>
		<g>
			<g>
				<rect x="270.96" y="29.93" width="6.47" height="244.83"/>
			</g>
		</g>
		<g>
			<path d="M330.49,106.6c-6.05,0-10.41-1.5-13.08-4.52c-2.67-3.01-4.01-7.8-4.01-14.38v-6.47h13.1v8.28c0,1.53,0.23,2.73,0.7,3.6
				c0.46,0.87,1.27,1.3,2.43,1.3c1.2,0,2.04-0.35,2.5-1.05c0.47-0.7,0.7-1.86,0.7-3.46c0-2.03-0.2-3.73-0.6-5.1
				c-0.4-1.37-1.1-2.67-2.09-3.91c-0.99-1.24-2.37-2.69-4.12-4.35l-5.95-5.65c-4.44-4.19-6.66-8.98-6.66-14.38
				c0-5.65,1.31-9.95,3.93-12.91c2.62-2.96,6.42-4.44,11.39-4.44c6.07,0,10.38,1.62,12.93,4.86c2.55,3.24,3.82,8.16,3.82,14.76
				h-13.47V54.2c0-0.9-0.26-1.61-0.77-2.11c-0.51-0.5-1.21-0.75-2.09-0.75c-1.05,0-1.83,0.29-2.31,0.88
				c-0.49,0.59-0.73,1.35-0.73,2.28c0,0.93,0.25,1.93,0.75,3.01c0.5,1.08,1.49,2.32,2.97,3.73l7.64,7.34
				c1.53,1.46,2.94,2.99,4.22,4.61c1.28,1.62,2.31,3.5,3.09,5.65c0.78,2.15,1.17,4.76,1.17,7.85c0,6.22-1.15,11.1-3.44,14.62
				C340.18,104.84,336.18,106.6,330.49,106.6z"/>
			<path d="M365.74,106V39.75h26.5v12.8h-13.02v12.91h12.5v12.46h-12.5v15.17h13.89V106H365.74z"/>
			<path d="M418.99,106l-8.17-66.29h12.61l4.85,45.09l4.33-45.09h12.61L437.06,106H418.99z"/>
			<path d="M464.48,106V39.75h26.5v12.8h-13.02v12.91h12.5v12.46h-12.5v15.17h13.89V106H464.48z"/>
			<path d="M511.63,106V39.75h13.63l6.1,31.73V39.75h12.8V106h-12.95l-6.63-33.12V106H511.63z"/>
			<path d="M327.55,187.6c-5.1,0-8.77-1.27-11.02-3.81c-2.25-2.54-3.38-6.57-3.38-12.11v-5.46h11.04v6.98c0,1.29,0.2,2.3,0.59,3.03
				c0.39,0.73,1.07,1.09,2.05,1.09c1.02,0,1.72-0.29,2.11-0.89c0.39-0.59,0.59-1.57,0.59-2.92c0-1.71-0.17-3.15-0.51-4.3
				c-0.34-1.15-0.92-2.25-1.76-3.3c-0.84-1.05-1.99-2.27-3.47-3.66l-5.01-4.76c-3.74-3.53-5.61-7.57-5.61-12.11
				c0-4.76,1.1-8.38,3.31-10.88c2.21-2.49,5.41-3.74,9.59-3.74c5.12,0,8.75,1.36,10.89,4.09c2.15,2.73,3.22,6.87,3.22,12.43h-11.35
				v-3.84c0-0.76-0.22-1.35-0.65-1.78c-0.43-0.42-1.02-0.63-1.76-0.63c-0.89,0-1.54,0.25-1.95,0.75c-0.41,0.5-0.62,1.14-0.62,1.92
				s0.21,1.63,0.64,2.54c0.42,0.91,1.26,1.96,2.5,3.14l6.44,6.18c1.29,1.23,2.47,2.52,3.55,3.88c1.08,1.36,1.95,2.95,2.6,4.76
				c0.66,1.81,0.98,4.01,0.98,6.61c0,5.24-0.97,9.35-2.9,12.32C335.71,186.11,332.35,187.6,327.55,187.6z"/>
			<path d="M364.31,187.6c-4.65,0-8.08-1.3-10.28-3.92c-2.2-2.61-3.3-6.45-3.3-11.53v-40.88h10.85v40.44c0,0.93,0.05,1.82,0.16,2.68
				c0.1,0.86,0.35,1.56,0.73,2.11c0.38,0.55,0.99,0.82,1.84,0.82c0.87,0,1.49-0.27,1.87-0.81c0.38-0.54,0.62-1.24,0.71-2.11
				c0.1-0.87,0.14-1.76,0.14-2.69v-40.44h10.85v40.88c0,5.07-1.1,8.92-3.3,11.53C372.39,186.29,368.97,187.6,364.31,187.6z"/>
			<path d="M389.31,187.09v-55.82h17l4.69,34.03l4.66-34.03h17.16v55.82h-10.21v-40.21l-6.41,40.21h-10.02l-6.79-40.21v40.21H389.31
				z"/>
			<path d="M444.92,187.09v-55.82h17l4.69,34.03l4.66-34.03h17.16v55.82h-10.21v-40.21l-6.41,40.21h-10.02L455,146.88v40.21H444.92z
				"/>
			<path d="M500.02,187.09v-55.82h10.78v55.82H500.02z"/>
			<path d="M527.17,187.09v-45.1h-6.63v-10.72h24.42v10.72h-6.63v45.1H527.17z"/>
			<path d="M319.08,265.04v-45.1h-6.63v-10.72h24.42v10.72h-6.63v45.1H319.08z"/>
			<path d="M361.41,265.04v-55.82h17.13c2.85,0,5.01,0.65,6.47,1.95c1.46,1.3,2.44,3.12,2.93,5.46c0.49,2.34,0.74,5.08,0.74,8.23
				c0,3.04-0.39,5.48-1.16,7.29c-0.77,1.82-2.23,3.08-4.36,3.77c1.75,0.36,2.99,1.23,3.69,2.62c0.71,1.39,1.06,3.18,1.06,5.38v21.12
				h-11.01v-21.85c0-1.63-0.33-2.64-1-3.03c-0.67-0.39-1.74-0.59-3.22-0.59v25.47H361.41z M372.77,229.9h2.7
				c1.54,0,2.31-1.68,2.31-5.04c0-2.18-0.17-3.61-0.51-4.28c-0.34-0.68-0.97-1.01-1.9-1.01h-2.6V229.9z"/>
			<path d="M413.8,265.04v-55.82h22.33V220h-10.97v10.88h10.53v10.5h-10.53v12.78h11.7v10.88H413.8z"/>
			<path d="M461.97,265.04v-55.82h11.04v22.36l5.2-22.36h11.23l-6.25,25.56l7.55,30.26h-11.58l-6.09-27.02v27.02H461.97z"/>
			<path d="M527.33,265.54c-5.1,0-8.77-1.27-11.02-3.81c-2.25-2.54-3.38-6.57-3.38-12.11v-5.46h11.04v6.98c0,1.29,0.2,2.3,0.59,3.03
				c0.39,0.73,1.07,1.09,2.05,1.09c1.02,0,1.72-0.29,2.11-0.89c0.39-0.59,0.59-1.57,0.59-2.92c0-1.71-0.17-3.15-0.51-4.3
				c-0.34-1.15-0.92-2.25-1.76-3.3c-0.84-1.05-1.99-2.27-3.47-3.66l-5.01-4.76c-3.74-3.53-5.61-7.57-5.61-12.11
				c0-4.76,1.1-8.38,3.31-10.88c2.21-2.49,5.41-3.74,9.59-3.74c5.12,0,8.75,1.36,10.89,4.09c2.15,2.73,3.22,6.87,3.22,12.43H528.6
				v-3.84c0-0.76-0.22-1.35-0.65-1.78c-0.43-0.42-1.02-0.64-1.76-0.64c-0.89,0-1.54,0.25-1.95,0.75c-0.41,0.5-0.62,1.14-0.62,1.92
				c0,0.78,0.21,1.63,0.64,2.54c0.42,0.91,1.26,1.96,2.5,3.14l6.44,6.18c1.29,1.23,2.47,2.52,3.55,3.88
				c1.08,1.36,1.95,2.95,2.6,4.76c0.66,1.81,0.98,4.01,0.98,6.61c0,5.24-0.97,9.35-2.9,12.32
				C535.5,264.06,532.13,265.54,527.33,265.54z"/>
		</g>
	</g>
	<g>
		<path d="M569.65,24.76v1.8h-4.62v15.16h-2.21V26.56h-4.65v-1.8H569.65z"/>
		<path d="M590.79,24.88v16.83h-2.21V29.16l-5.6,12.55h-1.56l-5.62-12.58v12.58h-2.21V24.88h2.38l6.23,13.91l6.23-13.91H590.79z"/>
	</g>
</g>
</svg>
