<?xml version="1.0" encoding="utf-8"?>
<!-- Generator: Adobe Illustrator 22.0.1, SVG Export Plug-In . SVG Version: 6.00 Build 0)  -->
<svg version="1.1" id="Layer_1" xmlns="http://www.w3.org/2000/svg" xmlns:xlink="http://www.w3.org/1999/xlink" x="0px" y="0px"
	 viewBox="0 0 162.4 97.8" style="enable-background:new 0 0 162.4 97.8;" xml:space="preserve">
<style type="text/css">
	.st0{fill-rule:evenodd;clip-rule:evenodd;fill:#CA872A;stroke:#CA872A;stroke-width:2;stroke-miterlimit:10;}
	.st1{fill-rule:evenodd;clip-rule:evenodd;fill:#D4992F;stroke:#D4992F;stroke-width:2;stroke-miterlimit:10;}
	.st2{fill-rule:evenodd;clip-rule:evenodd;fill:#E1A74E;stroke:#E1A74E;stroke-width:2;stroke-miterlimit:10;}
	.st3{fill-rule:evenodd;clip-rule:evenodd;fill:#FFCE83;stroke:#FFCE83;stroke-width:2;stroke-miterlimit:10;}
	.st4{fill-rule:evenodd;clip-rule:evenodd;fill:#9B693A;stroke:#9B693A;stroke-width:2;stroke-miterlimit:10;}
</style>
<path class="st0" d="M108,38.3H50.2l10.6-11.7c0,0,0.9-1.1,2-1.1h33c0,0,1.1-0.1,2.2,1.4L108,38.3z"/>
<path class="st1" d="M122.5,56.5H35.8l10.6-11.7c0,0,0.9-1.1,2-1.1h61.8c0,0,1.1-0.1,2.2,1.4L122.5,56.5z"/>
<path class="st2" d="M136.3,74.7H21.9L32.5,63c0,0,0.9-1.1,2-1.1H124c0,0,1.1-0.1,2.2,1.4L136.3,74.7z"/>
<path class="st3" d="M150.2,93.7H8.1L18.6,82c0,0,0.9-1.1,2-1.1h117.2c0,0,1.1-0.1,2.2,1.4L150.2,93.7z"/>
<polygon class="st4" points="65,20.3 79.1,3.9 93.3,20.3 "/>
</svg>
