<?xml version="1.0" encoding="utf-8"?>
<!-- Generator: Adobe Illustrator 27.1.0, SVG Export Plug-In . SVG Version: 6.00 Build 0)  -->
<svg version="1.1" xmlns="http://www.w3.org/2000/svg" xmlns:xlink="http://www.w3.org/1999/xlink" x="0px" y="0px"
	 viewBox="0 0 305.97 274.01" style="enable-background:new 0 0 305.97 274.01;" xml:space="preserve">
<style type="text/css">
	.st0{fill:#1E4363;}
	.st1{fill:#8CC1E6;}
	.st2{fill:#3490CE;}
	.st3{fill:#FFFFFF;}
	.st4{font-family:'Montserrat-Medium';}
	.st5{font-size:98px;}
</style>
<g id="BACKGROUND">
</g>
<g id="OBJECTS">
	<path class="st0" d="M54.68,274.01l-3.69-19.21c10.08-4.26,17.21-13.73,22.13-23.56H48.38c-20.8,0-37.73-16.92-37.73-37.73V76.23
		c0-20.8,16.92-37.73,37.73-37.73h219.86c20.8,0,37.73,16.92,37.73,37.73v117.29c0,20.8-16.92,37.73-37.73,37.73H135.38
		c-34.35,41.54-75.6,42.77-80.32,42.77L54.68,274.01z"/>
	<path class="st1" d="M44.02,263.01l-3.69-19.21c10.08-4.26,17.21-13.73,22.13-23.56H37.73C16.92,220.24,0,203.32,0,182.51V65.23
		C0,44.42,16.92,27.5,37.73,27.5h219.86c20.8,0,37.73,16.92,37.73,37.73v117.29c0,20.8-16.92,37.73-37.73,37.73H124.73
		c-34.35,41.54-75.6,42.77-80.32,42.77L44.02,263.01z"/>
	<path class="st2" d="M257.59,37.5H37.73C22.41,37.5,10,49.91,10,65.23v117.29c0,15.31,12.41,27.73,27.73,27.73h39.63
		c-5.26,15.67-15.18,35.18-33.13,42.77c0,0,42.11,0.86,75.69-42.77h137.68c15.31,0,27.73-12.41,27.73-27.73V65.23
		C285.32,49.91,272.9,37.5,257.59,37.5z"/>
	
		<ellipse transform="matrix(0.9333 -0.3592 0.3592 0.9333 -6.9447 22.0326)" class="st1" cx="55.83" cy="29.71" rx="29.71" ry="29.71"/>
	<text transform="matrix(1 0 0 1 35.4424 91.1798)" class="st3 st4 st5">”</text>
	<g>
		<path class="st3" d="M115.15,189c0-1.34,1.09-2.42,2.42-2.42c1.34,0,2.42,1.09,2.42,2.42s-1.09,2.42-2.42,2.42
			C116.24,191.42,115.15,190.34,115.15,189z"/>
		<circle class="st3" cx="127.6" cy="189" r="2.42"/>
		<circle class="st3" cx="137.63" cy="189" r="2.42"/>
		<path class="st3" d="M145.23,189c0-1.34,1.09-2.42,2.42-2.42c1.34,0,2.42,1.09,2.42,2.42s-1.09,2.42-2.42,2.42
			C146.32,191.42,145.23,190.34,145.23,189z"/>
		<circle class="st3" cx="157.69" cy="189" r="2.42"/>
		<path class="st3" d="M165.29,189c0-1.34,1.09-2.42,2.42-2.42c1.34,0,2.42,1.09,2.42,2.42s-1.09,2.42-2.42,2.42
			C166.37,191.42,165.29,190.34,165.29,189z"/>
		<path class="st3" d="M175.32,189c0-1.34,1.09-2.42,2.42-2.42c1.34,0,2.42,1.09,2.42,2.42s-1.09,2.42-2.42,2.42
			C176.4,191.42,175.32,190.34,175.32,189z"/>
	</g>
	<g>
		<path class="st3" d="M119.33,68.05c-3.35,0.37-3.99,3.96-3.99,7.08v19.16c0,3.12,0.64,6.72,3.99,7.08v6.05
			c-9.03-0.29-11.76-6.99-11.76-15.03V77.05c0-8.22,2.75-14.78,11.76-15.08V68.05z M120.56,61.97c8.34,0.3,11.24,6.32,11.24,14.34
			v3.35h-7.62v-3.74c0-3.49-0.44-7.4-3.62-7.85V61.97z M120.56,101.35c3.12-0.44,3.64-4.28,3.64-7.9v-4.18h7.6v3.37
			c-0.1,7.6-2.53,14.46-11.24,14.78V101.35z"/>
		<path class="st3" d="M136.5,106.61V62.78h7.77v43.83H136.5z M145.5,62.78h8.63v5.44h-8.63V62.78z M145.5,81.16h5.78v5.53h-5.78
			V81.16z M145.5,101.18h8.63v5.44h-8.63V101.18z"/>
		<path class="st3" d="M169.17,68.05c-3.34,0.37-4.06,3.96-4.06,7.08v19.19c0,3.12,0.69,6.69,4.06,7.06v6.05
			c-8.95-0.27-11.83-6.81-11.83-14.86V77.05c0-8.22,2.83-14.78,11.83-15.08V68.05z M170.4,61.97c9,0.3,11.88,6.84,11.88,15.08V92.4
			c0,8.04-2.85,14.73-11.88,15.03v-6.05c3.39-0.37,4.08-3.89,4.08-7.06V75.13c0-3.15-0.71-6.71-4.08-7.08V61.97z"/>
		<path class="st3" d="M53.77,167.08v-43.83h6.03v43.83H53.77z M72.31,167.08h-5.29l-6-21.42v-22.38h0.44L72.31,167.08z
			 M70.2,153.25l7.43-29.98h0.52v22.38l-5.41,17.96L70.2,153.25z M79.37,167.08v-43.83h6.03v43.83H79.37z"/>
		<path class="st3" d="M91.11,167.08v-43.83h7.77v43.83H91.11z M100.11,123.24h8.63v5.44h-8.63V123.24z M100.11,141.62h5.78v5.53
			h-5.78V141.62z M100.11,161.64h8.63v5.44h-8.63V161.64z"/>
		<path class="st3" d="M122.48,167.91c-7.45-0.39-10.82-6.49-11.26-12.96l7.8-1.57c0.12,3.67,0.74,7.7,3.47,8.44V167.91z
			 M119.55,146.81l-1.77-1.67c-3.27-2.88-6.52-5.98-6.52-11.63c0-6.57,4.4-10.68,10.9-11.07v5.98c-2.19,0.22-3.25,2.09-3.25,4.25
			c0,2.98,1.62,5.04,3.71,6.89c0.47,0.42,1.33,1.23,2.16,2.02L119.55,146.81z M125.65,142.43l0.91,0.81
			c4.28,3.96,7.75,7.97,7.75,14.37c0,6.15-4.77,10.13-10.6,10.33v-6c2.24-0.15,3.05-1.8,3.05-4.01c0-3.67-2.66-6.91-5.34-9.4
			l-0.98-0.91L125.65,142.43z M123.39,122.41c6.03,0.12,10.53,4.77,10.77,10.9v0.91l-7.9,1.23c0-0.44,0.05-0.96,0.05-1.48
			c-0.12-2.24-0.84-4.92-2.93-5.48V122.41z"/>
		<path class="st3" d="M148.4,167.91c-7.45-0.39-10.82-6.49-11.26-12.96l7.8-1.57c0.12,3.67,0.74,7.7,3.47,8.44V167.91z
			 M145.48,146.81l-1.77-1.67c-3.27-2.88-6.52-5.98-6.52-11.63c0-6.57,4.4-10.68,10.9-11.07v5.98c-2.19,0.22-3.25,2.09-3.25,4.25
			c0,2.98,1.62,5.04,3.71,6.89c0.47,0.42,1.33,1.23,2.16,2.02L145.48,146.81z M151.58,142.43l0.91,0.81
			c4.28,3.96,7.75,7.97,7.75,14.37c0,6.15-4.77,10.13-10.6,10.33v-6c2.24-0.15,3.05-1.8,3.05-4.01c0-3.67-2.66-6.91-5.34-9.4
			l-0.98-0.91L151.58,142.43z M149.31,122.41c6.03,0.12,10.53,4.77,10.77,10.9v0.91l-7.9,1.23c0-0.44,0.05-0.96,0.05-1.48
			c-0.12-2.24-0.84-4.92-2.93-5.48V122.41z"/>
		<path class="st3" d="M174.36,139.16l-4.87,27.92h-7.5l9.3-43.83h5.95L174.36,139.16z M178.52,123.24l9.3,43.83h-7.7l-1.89-9.81
			h-5.71l0.66-4.55h4.48l-2.12-13.04L178.52,123.24z"/>
		<path class="st3" d="M201.84,167.86c-0.22,0.02-0.42,0.02-0.64,0.02c-8.76,0-11.22-7.99-11.22-14.22v-16.11
			c0-8.19,2.8-14.78,11.95-15.1v6.08c-3.39,0.42-4.18,3.91-4.18,6.94v19.56c0,2.95,0.69,6.35,4.08,6.79V167.86z M203.05,161.84
			c3.54-0.29,4.21-4.06,4.21-6.99v-4.35h-3.17v-5.63h10.95v22.21h-5.14l-1.13-3.32c-1.13,1.99-3.32,3.42-5.71,3.94V161.84z
			 M203.17,122.43c8.71,0.25,11.58,6.47,11.58,14.61v2.09h-7.5v-2.46c0-3.59-0.32-7.77-4.08-8.17V122.43z"/>
		<path class="st3" d="M220.37,167.08v-43.83h7.77v43.83H220.37z M229.37,123.24H238v5.44h-8.63V123.24z M229.37,141.62h5.78v5.53
			h-5.78V141.62z M229.37,161.64H238v5.44h-8.63V161.64z"/>
	</g>
</g>
<g id="DESIGNED_BY_FREEPIK">
</g>
</svg>
