<?xml version="1.0" encoding="utf-8"?>
<!-- Generator: Adobe Illustrator 27.1.0, SVG Export Plug-In . SVG Version: 6.00 Build 0)  -->
<svg version="1.1" xmlns="http://www.w3.org/2000/svg" xmlns:xlink="http://www.w3.org/1999/xlink" x="0px" y="0px"
	 viewBox="0 0 300 300" style="enable-background:new 0 0 300 300;" xml:space="preserve">
<style type="text/css">
	.st0{clip-path:url(#SVGID_00000039130313927580385960000013874115692621452727_);}
	.st1{fill:#DDDDDD;}
	.st2{fill:url(#SVGID_00000004532017632859492910000005720335505403095452_);}
	.st3{fill:#D5D5D5;}
	.st4{fill:#FFFFFF;}
	.st5{fill:#CCC6D9;}
	.st6{fill-rule:evenodd;clip-rule:evenodd;fill:#CCC6D9;}
	.st7{fill:#FFFFFF;fill-opacity:0.3;}
	.st8{fill:#E1DCEB;}
	.st9{fill-rule:evenodd;clip-rule:evenodd;}
	.st10{fill:#E3E3E3;}
</style>
<g id="BG">
</g>
<g id="popup">
	<g>
		<g>
			<defs>
				<rect id="SVGID_1_" width="300" height="300"/>
			</defs>
			<clipPath id="SVGID_00000129192673640212055310000017149816721591456405_">
				<use xlink:href="#SVGID_1_"  style="overflow:visible;"/>
			</clipPath>
			<g style="clip-path:url(#SVGID_00000129192673640212055310000017149816721591456405_);">
				<path class="st1" d="M150,269c66.3,0,120-53.7,120-120S216.3,29,150,29S30,82.7,30,149S83.7,269,150,269z"/>
				<g>
					
						<linearGradient id="SVGID_00000127035176441710510440000004697137581358624912_" gradientUnits="userSpaceOnUse" x1="151.2685" y1="766.896" x2="151.2685" y2="611.867" gradientTransform="matrix(1 0 0 -1 0 830.452)">
						<stop  offset="0" style="stop-color:#FFFFFF"/>
						<stop  offset="0.7188" style="stop-color:#FAFAFA"/>
					</linearGradient>
					<path style="fill:url(#SVGID_00000127035176441710510440000004697137581358624912_);" d="M105,63.6h92.5c8.8,0,16,7.2,16,16
						v123c0,8.8-7.2,16-16,16H105c-8.8,0-16-7.2-16-16v-123C89,70.7,96.2,63.6,105,63.6z"/>
				</g>
				<path d="M104.9,83.6h40.2c2.7,0,4.9,2.2,4.9,4.9v0c0,2.7-2.2,4.9-4.9,4.9h-40.2c-2.7,0-4.9-2.2-4.9-4.9v0
					C100,85.7,102.2,83.6,104.9,83.6z"/>
				<path class="st3" d="M104.9,111.4h90.2c2.7,0,4.9,2.2,4.9,4.9v0c0,2.7-2.2,4.9-4.9,4.9h-90.2c-2.7,0-4.9-2.2-4.9-4.9v0
					C100,113.5,102.2,111.4,104.9,111.4z"/>
				<path class="st3" d="M104.9,139.2h90.2c2.7,0,4.9,2.2,4.9,4.9v0c0,2.7-2.2,4.9-4.9,4.9h-90.2c-2.7,0-4.9-2.2-4.9-4.9v0
					C100,141.3,102.2,139.2,104.9,139.2z"/>
				<path class="st3" d="M104.9,167h90.2c2.7,0,4.9,2.2,4.9,4.9v0c0,2.7-2.2,4.9-4.9,4.9h-90.2c-2.7,0-4.9-2.2-4.9-4.9v0
					C100,169.1,102.2,167,104.9,167z"/>
				<path class="st3" d="M104.9,194.8h90.2c2.7,0,4.9,2.2,4.9,4.9l0,0c0,2.7-2.2,4.9-4.9,4.9h-90.2c-2.7,0-4.9-2.2-4.9-4.9l0,0
					C100,196.9,102.2,194.8,104.9,194.8z"/>
				<g>
					<path class="st4" d="M288.1,46.4h-60.1c-2.8,0-5.1,2.4-5.1,5.3v29.7c0,2.9,2.3,5.3,5.1,5.3h60.1c2.8,0,5.1-2.4,5.1-5.3V51.8
						C293.2,48.8,291,46.4,288.1,46.4z"/>
				</g>
				<path class="st5" d="M238,73c3.3,0,6-2.7,6-6c0-3.3-2.7-6-6-6s-6,2.7-6,6C232,70.3,234.7,73,238,73z"/>
				<path class="st3" d="M258,61h20c3.3,0,6,2.7,6,6l0,0c0,3.3-2.7,6-6,6h-20c-3.3,0-6-2.7-6-6l0,0C252,63.7,254.7,61,258,61z"/>
				<path class="st6" d="M185.1,225.6c12.9,0,24.8-3.9,34.8-10.6l40.7,38.9l14.8-17.1l-39.3-37.5c7.3-10.2,11.5-22.7,11.5-36.2
					c0-34.5-28-62.5-62.5-62.5c-34.5,0-62.5,28-62.5,62.5C122.6,197.6,150.6,225.6,185.1,225.6z M238.4,163.1
					c0,29.2-23.7,52.9-52.9,52.9s-52.9-23.7-52.9-52.9c0-29.2,23.7-52.9,52.9-52.9S238.4,133.8,238.4,163.1z"/>
				<g>
					<path class="st7" d="M185.5,217c30.1,0,54.5-24.2,54.5-54s-24.4-54-54.5-54S131,133.2,131,163S155.4,217,185.5,217z"/>
				</g>
				<path d="M194.9,163l13.2-13.1c1.2-1.3,1.9-3,1.9-4.8c0-1.8-0.8-3.5-2-4.8c-1.3-1.3-3-2-4.8-2c-1.8,0-3.5,0.6-4.8,1.9l-13.2,13.1
					l-13.2-13.1c-0.6-0.7-1.4-1.2-2.2-1.6c-0.8-0.4-1.8-0.6-2.7-0.6s-1.8,0.2-2.7,0.5c-0.9,0.3-1.6,0.9-2.3,1.5
					c-0.7,0.6-1.2,1.4-1.5,2.3c-0.3,0.9-0.5,1.8-0.5,2.7c0,0.9,0.2,1.8,0.6,2.7c0.4,0.8,0.9,1.6,1.6,2.2l13.2,13.1l-13.2,13.1
					c-0.7,0.6-1.2,1.4-1.6,2.2c-0.4,0.8-0.6,1.7-0.6,2.7c0,0.9,0.2,1.8,0.5,2.7c0.3,0.9,0.9,1.6,1.5,2.3c0.7,0.6,1.4,1.2,2.3,1.5
					c0.9,0.3,1.8,0.5,2.7,0.5s1.8-0.2,2.7-0.6c0.8-0.4,1.6-0.9,2.2-1.6l13.2-13.1l13.2,13.1c1.3,1.2,3,1.8,4.8,1.7
					c1.8-0.1,3.4-0.8,4.7-2c1.2-1.2,2-2.9,2-4.6c0.1-1.7-0.6-3.4-1.7-4.8L194.9,163z"/>
				<path class="st8" d="M260.6,253.8l14.8-17.1l2.2,2.1c2.2,2.1,3.4,4.9,3.6,8c0.1,3.1-0.9,6.1-2.8,8.3c-2,2.3-4.7,3.6-7.6,3.8
					c-2.9,0.1-5.8-0.9-7.9-3L260.6,253.8L260.6,253.8z"/>
				<path class="st9" d="M56.3,91.2c0-1.4-0.2-2.9-0.6-4.3c-1.3-5.1-6.9-8.3-12.8-9.1c-6-0.8-12.1,1-14.5,5.4
					c-1.4,2.5-1.6,4.7-1,6.5c0.6,1.8,1.9,3.3,3.7,4.5c5,3.3,13.7,4,17.7,2.6c1.8-0.6,3.6-1.4,5.4-2.3c-1,5.7-4.7,11.2-9.7,16.1
					c-10.8,10.7-27.7,18.8-36.8,21.7c-0.5,0.2-0.8,0.7-0.6,1.2c0.2,0.5,0.7,0.8,1.2,0.6c9.3-3,26.5-11.3,37.5-22.2
					c5.7-5.6,9.8-11.9,10.5-18.6c12.9-7.2,23.5-20.3,32.6-31.3c0.3-0.4,0.3-1-0.1-1.4c-0.4-0.3-1-0.3-1.3,0.1
					C78.7,71.5,68.6,84,56.3,91.2z M54.4,92.2c0.1-1.6-0.1-3.2-0.5-4.9c-1.1-4.4-6.1-7-11.2-7.7c-3.2-0.4-6.4-0.1-9,1.1
					c-1.6,0.7-2.9,1.8-3.7,3.3c-1,1.9-1.3,3.6-0.8,5c0.4,1.4,1.5,2.6,2.9,3.5c4.5,3,12.5,3.6,16.1,2.4
					C50.3,94.2,52.4,93.3,54.4,92.2z"/>
				<circle class="st10" cx="285" cy="184" r="6"/>
				<path class="st6" d="M58.4,225.4c1.1-0.4,2.2-0.9,3.1-1.7c1-0.9,1.5-2.1,1.7-3.3c0.4-1.6,0.5-3.3,0.9-4.9
					c0.2-0.6,0.5-0.8,0.6-0.9c0.3-0.3,0.7-0.3,1-0.3c0.4,0,0.9,0.2,1.3,0.9c0,0.1,0.1,0.2,0.2,0.4c0,0.1,0.1,0.6,0.1,0.8
					c0.1,0.5,0.2,0.9,0.2,1.4c0.2,1.6,0.3,2.9,1,4.3c0.9,2,1.9,3.2,3.1,3.7c1.2,0.5,2.7,0.4,4.6,0c0.2,0,0.4-0.1,0.5-0.1
					c0.8-0.2,1.6,0.4,1.8,1.3c0.2,0.9-0.4,1.7-1.2,1.9c-0.2,0-0.3,0.1-0.5,0.1c-2.5,0.7-5.4,3-7.1,5.1c-0.5,0.6-1.3,2.4-2.1,3.5
					c-0.6,0.8-1.2,1.4-1.8,1.6c-0.4,0.1-0.7,0.1-0.9,0c-0.4-0.1-0.7-0.3-0.9-0.6c-0.1-0.2-0.2-0.4-0.3-0.7c0-0.2,0-0.5,0-0.7
					c-0.2-0.6-0.4-1.1-0.5-1.7c-0.3-1.4-1-2.3-1.8-3.4c-0.7-1.1-1.5-1.8-2.7-2.3c-0.2,0-1.4-0.4-1.8-0.5c-0.6-0.3-0.9-0.7-1-0.9
					c-0.2-0.4-0.2-0.8-0.2-1.1c0.1-0.4,0.2-0.8,0.6-1.1c0.2-0.2,0.5-0.4,0.9-0.5C57.4,225.4,58.3,225.4,58.4,225.4z M65.6,223.1
					c0.1,0.1,0.1,0.3,0.2,0.4c1.4,2.9,2.9,4.5,4.7,5.2l0.1,0c-1.2,1-2.4,2.1-3.2,3.1c-0.4,0.4-0.8,1.3-1.3,2.2
					c-0.5-1.6-1.2-2.7-2.2-4.1c-0.7-1.1-1.5-1.9-2.4-2.5c0.7-0.4,1.4-0.8,2-1.4C64.4,225.3,65.1,224.2,65.6,223.1z"/>
			</g>
		</g>
	</g>
</g>
</svg>
