<?xml version="1.0" encoding="utf-8"?>
<!-- Generator: Adobe Illustrator 28.0.0, SVG Export Plug-In . SVG Version: 6.00 Build 0)  -->
<svg version="1.1" id="Layer_1" xmlns="http://www.w3.org/2000/svg" xmlns:xlink="http://www.w3.org/1999/xlink" x="0px" y="0px"
	 viewBox="0 0 407.4 111.5" style="enable-background:new 0 0 407.4 111.5;" xml:space="preserve">
<style type="text/css">
	.st0{fill:#115389;}
	.st1{fill:#B8B7B8;}
	.st2{fill:url(#SVGID_1_);}
	.st3{fill:url(#SVGID_00000072264469320472862380000008861127345049765507_);}
	.st4{fill:#D9D9D9;}
	.st5{fill:#3B4147;}
	.st6{fill:#59585B;}
	.st7{fill:#D8D8D8;}
	.st8{fill:#FDFDFD;}
	.st9{fill:#A6A5A6;}
	.st10{fill:#FFFFFF;}
</style>
<g>
	<path d="M32.1,111.3l-4.6-8.1h-2v8.1h-4.2V90.5h7.8c1.6,0,3,0.3,4.1,0.8c1.1,0.6,2,1.3,2.5,2.3c0.6,1,0.8,2,0.8,3.2
		c0,1.4-0.4,2.6-1.2,3.7c-0.8,1.1-2,1.9-3.5,2.3l5,8.4H32.1z M25.6,100.1h3.5c1.1,0,2-0.3,2.5-0.8c0.6-0.6,0.8-1.3,0.8-2.3
		c0-1-0.3-1.7-0.8-2.3c-0.6-0.5-1.4-0.8-2.5-0.8h-3.5V100.1z"/>
	<path d="M56.6,104.2h-12c0.1,1.2,0.5,2.2,1.2,2.8c0.7,0.7,1.6,1,2.7,1c1.5,0,2.6-0.7,3.3-2h4.5c-0.5,1.6-1.4,2.9-2.7,3.9
		c-1.3,1-3,1.5-5,1.5c-1.6,0-3-0.4-4.3-1.1c-1.3-0.7-2.2-1.7-2.9-3c-0.7-1.3-1.1-2.8-1.1-4.4c0-1.7,0.3-3.2,1-4.5
		c0.7-1.3,1.7-2.3,2.9-3c1.2-0.7,2.7-1,4.3-1c1.6,0,3,0.3,4.2,1c1.2,0.7,2.2,1.6,2.9,2.8c0.7,1.2,1,2.6,1,4.2
		C56.7,103.2,56.6,103.7,56.6,104.2z M52.4,101.7c0-1.1-0.4-2.1-1.1-2.7c-0.7-0.7-1.7-1-2.8-1c-1,0-1.9,0.3-2.6,1
		c-0.7,0.7-1.1,1.6-1.3,2.7H52.4z"/>
	<path d="M83.4,94.8l-4.8,16.4h-4.5l-3-11.5l-3,11.5h-4.5l-4.8-16.4H63l2.9,12.5l3.1-12.5h4.4l3.1,12.5l2.9-12.5H83.4z"/>
	<path d="M86.6,98.6c0.7-1.3,1.6-2.3,2.7-3c1.1-0.7,2.4-1,3.8-1c1.2,0,2.3,0.2,3.2,0.7c0.9,0.5,1.7,1.1,2.2,1.9v-2.3h4.2v16.4h-4.2
		v-2.4c-0.5,0.8-1.3,1.4-2.2,1.9c-0.9,0.5-2,0.8-3.2,0.8c-1.4,0-2.6-0.4-3.8-1.1c-1.1-0.7-2-1.7-2.7-3c-0.7-1.3-1-2.8-1-4.5
		C85.6,101.3,85.9,99.8,86.6,98.6z M97.9,100.4c-0.4-0.7-0.9-1.3-1.6-1.7c-0.7-0.4-1.4-0.6-2.2-0.6c-0.8,0-1.5,0.2-2.1,0.6
		c-0.7,0.4-1.2,0.9-1.6,1.6c-0.4,0.7-0.6,1.6-0.6,2.6c0,1,0.2,1.9,0.6,2.6c0.4,0.7,0.9,1.3,1.6,1.7c0.7,0.4,1.4,0.6,2.1,0.6
		c0.8,0,1.5-0.2,2.2-0.6c0.7-0.4,1.2-0.9,1.6-1.7c0.4-0.7,0.6-1.6,0.6-2.6C98.5,102,98.3,101.2,97.9,100.4z"/>
	<path d="M114,95.4c0.9-0.6,1.8-0.8,3-0.8v4.4h-1.1c-1.3,0-2.3,0.3-3,0.9c-0.7,0.6-1,1.7-1,3.2v8.2h-4.2V94.8h4.2v2.9
		C112.4,96.7,113.1,96,114,95.4z"/>
	<path d="M120.6,98.6c0.7-1.3,1.6-2.3,2.7-3c1.1-0.7,2.4-1,3.8-1c1.1,0,2.1,0.2,3.1,0.7c1,0.5,1.7,1.1,2.3,1.9v-7.8h4.2v22h-4.2
		v-2.4c-0.5,0.8-1.2,1.5-2.2,2c-0.9,0.5-2,0.7-3.2,0.7c-1.4,0-2.7-0.4-3.8-1.1c-1.1-0.7-2.1-1.7-2.7-3c-0.7-1.3-1-2.8-1-4.5
		C119.6,101.3,119.9,99.8,120.6,98.6z M131.9,100.4c-0.4-0.7-0.9-1.3-1.6-1.7c-0.7-0.4-1.4-0.6-2.2-0.6c-0.8,0-1.5,0.2-2.1,0.6
		c-0.7,0.4-1.2,0.9-1.6,1.6c-0.4,0.7-0.6,1.6-0.6,2.6c0,1,0.2,1.9,0.6,2.6s0.9,1.3,1.6,1.7c0.7,0.4,1.4,0.6,2.1,0.6
		c0.8,0,1.5-0.2,2.2-0.6c0.7-0.4,1.2-0.9,1.6-1.7c0.4-0.7,0.6-1.6,0.6-2.6C132.5,102,132.3,101.2,131.9,100.4z"/>
	<path d="M144.4,110.8c-1.1-0.5-1.9-1.1-2.5-2c-0.6-0.8-1-1.8-1-2.8h4.2c0.1,0.7,0.4,1.3,0.9,1.7c0.5,0.4,1.2,0.6,2,0.6
		c0.8,0,1.4-0.2,1.9-0.5c0.4-0.3,0.7-0.8,0.7-1.3c0-0.5-0.3-0.9-0.8-1.2c-0.5-0.3-1.4-0.6-2.6-0.9s-2.2-0.6-3-0.9
		c-0.8-0.3-1.4-0.8-2-1.4c-0.6-0.7-0.8-1.5-0.8-2.6c0-0.9,0.3-1.8,0.8-2.5c0.5-0.8,1.2-1.4,2.2-1.8c1-0.4,2.1-0.7,3.5-0.7
		c2,0,3.5,0.5,4.7,1.5c1.2,1,1.8,2.3,1.9,4h-4c-0.1-0.7-0.3-1.2-0.8-1.7c-0.5-0.4-1.1-0.6-1.9-0.6c-0.8,0-1.3,0.2-1.7,0.5
		c-0.4,0.3-0.6,0.7-0.6,1.3c0,0.6,0.3,1,0.8,1.3c0.6,0.3,1.4,0.6,2.6,0.9c1.2,0.3,2.2,0.6,2.9,0.9c0.8,0.3,1.4,0.8,2,1.4
		c0.6,0.6,0.8,1.5,0.8,2.6c0,0.9-0.3,1.8-0.8,2.6c-0.5,0.8-1.3,1.4-2.2,1.8c-1,0.4-2.1,0.7-3.4,0.7
		C146.6,111.5,145.4,111.3,144.4,110.8z"/>
	<path d="M181,111.3l-2.3-3.1c-0.5,1-1.3,1.8-2.3,2.4c-1,0.6-2.1,0.9-3.4,0.9c-1.2,0-2.3-0.3-3.3-0.8c-1-0.6-1.7-1.3-2.3-2.3
		c-0.6-1-0.8-2.1-0.8-3.3c0-1.1,0.2-2.1,0.7-3c0.5-0.9,1.1-1.6,1.9-2.2c0.8-0.5,1.7-0.9,2.6-1c-0.6-0.8-1.1-1.5-1.4-2.2
		c-0.3-0.7-0.4-1.4-0.4-2.2c0-0.9,0.2-1.7,0.7-2.5c0.5-0.8,1.1-1.4,2-1.9c0.9-0.5,1.9-0.7,3.1-0.7c1.2,0,2.2,0.2,3,0.6s1.5,1,2,1.7
		c0.5,0.7,0.7,1.4,0.8,2.2c0,0.3,0.1,0.6,0.1,0.8c0,0.4,0,0.8-0.1,1.2h-4c0.1-0.4,0.2-0.8,0.1-1.2c0-0.6-0.2-1-0.5-1.3
		c-0.3-0.3-0.8-0.5-1.3-0.5c-0.5,0-0.9,0.2-1.3,0.5c-0.3,0.3-0.5,0.8-0.5,1.3c0,0.4,0.1,0.7,0.2,1.1s0.4,0.8,0.8,1.3l10.6,14.2H181z
		 M175.2,107.2c0.6-0.6,0.8-1.3,0.8-2.1c0-0.8-0.3-1.5-0.8-2.1c-0.6-0.6-1.2-0.8-2-0.8c-0.8,0-1.5,0.3-2,0.8
		c-0.5,0.6-0.8,1.3-0.8,2.1c0,0.9,0.3,1.6,0.8,2.1c0.5,0.6,1.2,0.9,2,0.9C173.9,108,174.6,107.8,175.2,107.2z"/>
	<path d="M210.8,91.8c1.7,0.9,2.9,2.1,3.8,3.6c0.9,1.6,1.3,3.4,1.3,5.5c0,2.1-0.4,3.9-1.3,5.4c-0.9,1.6-2.2,2.8-3.8,3.6
		c-1.7,0.9-3.6,1.3-5.7,1.3h-7.2V90.5h7.2C207.3,90.5,209.2,91,210.8,91.8z M210,106c1.2-1.2,1.8-2.9,1.8-5.1c0-2.2-0.6-3.8-1.8-5.1
		c-1.2-1.2-2.9-1.8-5-1.8H202v13.9h2.9C207.1,107.9,208.8,107.3,210,106z"/>
	<path d="M220.3,92.2c-0.5-0.5-0.7-1-0.7-1.7c0-0.7,0.2-1.3,0.7-1.7c0.5-0.5,1.1-0.7,1.8-0.7c0.7,0,1.3,0.2,1.8,0.7
		c0.5,0.5,0.7,1,0.7,1.7c0,0.7-0.2,1.3-0.7,1.7c-0.5,0.5-1.1,0.7-1.8,0.7C221.4,92.9,220.8,92.6,220.3,92.2z M224.2,94.8v16.4h-4.2
		V94.8H224.2z"/>
	<path d="M231.9,110.8c-1.1-0.5-1.9-1.1-2.5-2c-0.6-0.8-1-1.8-1-2.8h4.2c0.1,0.7,0.4,1.3,0.9,1.7c0.5,0.4,1.2,0.6,2,0.6
		c0.8,0,1.4-0.2,1.9-0.5c0.4-0.3,0.7-0.8,0.7-1.3c0-0.5-0.3-0.9-0.8-1.2c-0.5-0.3-1.4-0.6-2.6-0.9s-2.2-0.6-3-0.9
		c-0.8-0.3-1.4-0.8-2-1.4c-0.6-0.7-0.8-1.5-0.8-2.6c0-0.9,0.3-1.8,0.8-2.5c0.5-0.8,1.2-1.4,2.2-1.8c1-0.4,2.1-0.7,3.5-0.7
		c2,0,3.5,0.5,4.7,1.5c1.2,1,1.8,2.3,1.9,4h-4c-0.1-0.7-0.3-1.2-0.8-1.7c-0.5-0.4-1.1-0.6-1.9-0.6c-0.8,0-1.3,0.2-1.7,0.5
		c-0.4,0.3-0.6,0.7-0.6,1.3c0,0.6,0.3,1,0.8,1.3c0.6,0.3,1.4,0.6,2.6,0.9c1.2,0.3,2.2,0.6,2.9,0.9c0.8,0.3,1.4,0.8,2,1.4
		c0.6,0.6,0.8,1.5,0.8,2.6c0,0.9-0.3,1.8-0.8,2.6c-0.5,0.8-1.3,1.4-2.2,1.8c-1,0.4-2.1,0.7-3.4,0.7
		C234.2,111.5,233,111.3,231.9,110.8z"/>
	<path d="M246.4,98.6c0.7-1.3,1.7-2.3,2.9-3c1.2-0.7,2.6-1.1,4.2-1.1c2,0,3.7,0.5,5.1,1.5c1.3,1,2.2,2.4,2.7,4.3h-4.5
		c-0.2-0.7-0.6-1.3-1.2-1.7c-0.6-0.4-1.3-0.6-2.1-0.6c-1.2,0-2.1,0.4-2.8,1.3c-0.7,0.9-1,2.1-1,3.7c0,1.6,0.3,2.8,1,3.6
		c0.7,0.9,1.6,1.3,2.8,1.3c1.7,0,2.8-0.8,3.3-2.3h4.5c-0.5,1.8-1.4,3.2-2.7,4.2c-1.3,1-3,1.6-5,1.6c-1.6,0-3-0.4-4.2-1.1
		c-1.2-0.7-2.2-1.7-2.9-3c-0.7-1.3-1-2.8-1-4.5S245.7,99.8,246.4,98.6z"/>
	<path d="M268.2,110.5c-1.3-0.7-2.3-1.7-3-3c-0.7-1.3-1.1-2.8-1.1-4.4c0-1.7,0.4-3.2,1.1-4.4c0.7-1.3,1.8-2.3,3-3
		c1.3-0.7,2.7-1.1,4.3-1.1c1.6,0,3,0.4,4.3,1.1c1.3,0.7,2.3,1.7,3,3c0.7,1.3,1.1,2.8,1.1,4.4c0,1.7-0.4,3.2-1.1,4.4
		c-0.8,1.3-1.8,2.3-3.1,3c-1.3,0.7-2.7,1.1-4.3,1.1C270.9,111.5,269.5,111.2,268.2,110.5z M274.6,107.4c0.7-0.4,1.2-0.9,1.6-1.7
		c0.4-0.7,0.6-1.6,0.6-2.7c0-1-0.2-1.9-0.6-2.7c-0.4-0.7-0.9-1.3-1.6-1.7c-0.6-0.4-1.3-0.6-2.1-0.6c-1.2,0-2.2,0.4-3,1.3
		c-0.8,0.9-1.2,2.1-1.2,3.6s0.4,2.8,1.2,3.6c0.8,0.9,1.8,1.3,2.9,1.3C273.2,108,273.9,107.8,274.6,107.4z"/>
	<path d="M300.6,94.8v16.4h-4.2v-2.1c-0.5,0.7-1.2,1.3-2.1,1.7c-0.9,0.4-1.8,0.6-2.8,0.6c-1.3,0-2.4-0.3-3.4-0.8
		c-1-0.5-1.8-1.3-2.3-2.4c-0.6-1.1-0.8-2.3-0.8-3.8v-9.6h4.2v9c0,1.3,0.3,2.3,1,3c0.7,0.7,1.5,1.1,2.7,1.1c1.1,0,2-0.4,2.7-1.1
		c0.7-0.7,1-1.7,1-3v-9H300.6z"/>
	<path d="M319.5,96.4c1.2,1.2,1.8,3,1.8,5.2v9.6h-4.2v-9.1c0-1.3-0.3-2.3-1-3c-0.7-0.7-1.5-1.1-2.7-1.1c-1.1,0-2.1,0.4-2.7,1.1
		c-0.7,0.7-1,1.7-1,3v9.1h-4.2V94.8h4.2v2c0.6-0.7,1.3-1.3,2.1-1.7c0.9-0.4,1.8-0.6,2.8-0.6C316.7,94.6,318.3,95.2,319.5,96.4z"/>
	<path d="M331,98.2v8c0,0.6,0.1,1,0.4,1.2s0.7,0.4,1.3,0.4h1.9v3.5h-2.6c-3.5,0-5.3-1.7-5.3-5.1v-7.9h-2v-3.4h2v-4.1h4.2v4.1h3.7
		v3.4H331z"/>
	<path d="M364.7,90.5v20.7h-4.2v-8.9h-8.9v8.9h-4.2V90.5h4.2v8.6h8.9v-8.6H364.7z"/>
	<path d="M385.3,94.8v16.4h-4.2v-2.1c-0.5,0.7-1.2,1.3-2.1,1.7c-0.9,0.4-1.8,0.6-2.8,0.6c-1.3,0-2.4-0.3-3.4-0.8
		c-1-0.5-1.8-1.3-2.3-2.4s-0.8-2.3-0.8-3.8v-9.6h4.2v9c0,1.3,0.3,2.3,1,3s1.5,1.1,2.7,1.1c1.1,0,2-0.4,2.7-1.1s1-1.7,1-3v-9H385.3z"
		/>
	<path d="M396.7,95.3c0.9-0.5,2-0.7,3.2-0.7c1.4,0,2.7,0.3,3.8,1c1.1,0.7,2,1.7,2.7,3c0.7,1.3,1,2.8,1,4.4s-0.3,3.2-1,4.5
		c-0.7,1.3-1.6,2.3-2.7,3c-1.1,0.7-2.4,1.1-3.8,1.1c-1.2,0-2.3-0.2-3.2-0.7c-0.9-0.5-1.7-1.1-2.2-1.9v2.3h-4.2v-22h4.2v7.9
		C395,96.4,395.8,95.8,396.7,95.3z M402.6,100.4c-0.4-0.7-0.9-1.3-1.6-1.6c-0.7-0.4-1.4-0.6-2.2-0.6c-0.8,0-1.5,0.2-2.1,0.6
		c-0.7,0.4-1.2,0.9-1.6,1.7c-0.4,0.7-0.6,1.6-0.6,2.6s0.2,1.8,0.6,2.6c0.4,0.7,0.9,1.3,1.6,1.7c0.7,0.4,1.4,0.6,2.1,0.6
		c0.8,0,1.5-0.2,2.2-0.6c0.7-0.4,1.2-1,1.6-1.7c0.4-0.7,0.6-1.6,0.6-2.6C403.2,102,403,101.1,402.6,100.4z"/>
</g>
<g>
	<path class="st0" d="M123.6,59.7H146V70h-35.9V2.3h13.6V59.7z"/>
	<path class="st0" d="M170.3,66.3c-5.3-3-9.5-7.1-12.6-12.4c-3.1-5.3-4.7-11.2-4.7-17.9c0-6.6,1.6-12.5,4.7-17.8
		c3.1-5.3,7.3-9.4,12.6-12.4c5.3-3,11.1-4.5,17.5-4.5c6.4,0,12.2,1.5,17.5,4.5c5.3,3,9.4,7.1,12.5,12.4c3.1,5.3,4.6,11.2,4.6,17.8
		c0,6.7-1.5,12.6-4.6,17.9c-3.1,5.3-7.3,9.4-12.6,12.4c-5.3,3-11.1,4.5-17.5,4.5C181.4,70.7,175.6,69.2,170.3,66.3z M198.6,55.4
		c3.1-1.8,5.5-4.4,7.3-7.8c1.7-3.3,2.6-7.2,2.6-11.7c0-4.5-0.9-8.4-2.6-11.7s-4.2-5.9-7.3-7.7c-3.1-1.8-6.7-2.7-10.8-2.7
		s-7.7,0.9-10.8,2.7c-3.1,1.8-5.6,4.4-7.3,7.7S167,31.5,167,36c0,4.5,0.9,8.4,2.6,11.7c1.7,3.3,4.2,5.9,7.3,7.8
		c3.1,1.8,6.7,2.8,10.8,2.8S195.4,57.3,198.6,55.4z"/>
	<path class="st0" d="M282.1,41c2.5,3.1,3.7,6.7,3.7,10.7c0,3.6-0.9,6.8-2.7,9.6c-1.8,2.8-4.4,4.9-7.7,6.5
		c-3.4,1.6-7.3,2.3-11.9,2.3h-29.2V2.3h27.9c4.6,0,8.6,0.7,11.9,2.2c3.3,1.5,5.9,3.6,7.6,6.2c1.7,2.7,2.6,5.7,2.6,9
		c0,3.9-1.1,7.2-3.2,9.9c-2.1,2.7-4.9,4.5-8.4,5.6C276.5,36,279.6,37.9,282.1,41z M247.8,30.5h12.4c3.2,0,5.7-0.7,7.5-2.2
		s2.6-3.6,2.6-6.4s-0.9-4.9-2.7-6.5c-1.8-1.6-4.3-2.3-7.4-2.3h-12.4V30.5z M269.2,56.9c1.8-1.6,2.8-3.9,2.8-6.8c0-2.9-1-5.2-2.9-6.9
		c-1.9-1.7-4.6-2.5-7.9-2.5h-13.4v18.6h13.7C264.8,59.3,267.4,58.5,269.2,56.9z"/>
	<path class="st0" d="M339.9,57.1h-27L308.5,70h-14.3l24.4-67.8h15.8L358.8,70h-14.4L339.9,57.1z M336.3,46.6l-9.9-28.6l-9.9,28.6
		H336.3z"/>
	<path class="st0" d="M383.2,59.7h22.3V70h-35.9V2.3h13.6V59.7z"/>
</g>
<g>
	<path class="st0" d="M56.2,71.5c-19.7,0-35.8-16-35.8-35.8C20.5,16,36.5,0,56.2,0c9.4,0,18.3,3.6,25,10.2l-8.5,8.7
		c-4.4-4.4-10.3-6.8-16.5-6.8c-13,0-23.6,10.6-23.6,23.6s10.6,23.6,23.6,23.6c10.9,0,20.2-7.5,22.8-17.6H59.3V29.7H92v6.1
		C92,55.5,76,71.5,56.2,71.5z"/>
	<g>
		<path class="st1" d="M41.8,52.1c1.4,0.5,3.8,1.6,5,1.9c-0.5,0.3-1.3,0.8-1.8,1.1C43.5,54.1,42.7,53.6,41.8,52.1z"/>
		
			<linearGradient id="SVGID_1_" gradientUnits="userSpaceOnUse" x1="607.0919" y1="-352.7299" x2="603.1449" y2="-343.3366" gradientTransform="matrix(0.4883 0 0 -0.4883 -246.2799 -114.1721)">
			<stop  offset="0" style="stop-color:#969596"/>
			<stop  offset="1" style="stop-color:#B4B3B4"/>
		</linearGradient>
		<path class="st2" d="M46.8,54c1.2,0.3,2.8,0.7,3.9,1.1l1.8,0.7c0.4,0.1,0.4,0,0.7,0.3c0,0.4-0.2,0.7-0.1,1.1
			c-3.1-0.3-5.4-0.4-8.1-2.1C45.4,54.7,46.3,54.3,46.8,54z"/>
		
			<linearGradient id="SVGID_00000011728059023458484160000006372587040180102034_" gradientUnits="userSpaceOnUse" x1="608.2958" y1="-322.2167" x2="640.0378" y2="-284.1783" gradientTransform="matrix(0.4883 0 0 -0.4883 -246.2799 -114.1721)">
			<stop  offset="0" style="stop-color:#5A5B5E"/>
			<stop  offset="1" style="stop-color:#87888A"/>
		</linearGradient>
		<path style="fill:url(#SVGID_00000011728059023458484160000006372587040180102034_);" d="M36,29.1c0.2-0.5,0.4-1,0.6-1.5
			c2.4-5.2,7.4-10.1,12.9-12c1.1-0.4,4.4-1.4,5.4-0.9c0.2,1,0.1,0.7,0.9,1.2c0.2,0.5,0.2,0.5,0.1,1.1c-0.5,0.9-2.8,1.6-3.8,2
			c-0.2,1-0.1,1.7-0.9,2.3L51,21.2c-0.5-0.6-0.7-1.2-0.9-2c-0.9,0.2-1.5,0.3-2.5,0.3c-0.8,0.9-0.7,1.2-0.8,2.4
			c1.1,0,1.4,0.3,2.4,0.6l0.3,0.4c-1.4,1.4-0.2,2.2-1.9,2.9c-1,0.5-2,2.7-1.7,3.7c2.6-0.7,8,0,10.9,0c-0.1,3.7,0.2,7.6,0.3,11.3
			l0,0.8c0.2,1,0.2,1.6,0.3,2.5c5.8,1,11.3,0.9,17.2,1.1c-0.5,2.4-1.1,3.7-2.5,5.8c-0.2,0.2-0.7,1-0.9,1.2c-0.8-0.3-1.7-0.6-2.5-0.9
			c-8.4-2.5-20.4-8.4-27.8-13.3c-1.8-1.2-4.3-3.3-6-4.6C35.1,31.5,35.6,30.7,36,29.1z"/>
		<path class="st4" d="M35,33.3c0.1-1.7,0.7-2.6,1.1-4.2c1,1.2,0.9,2.4,1.5,3.9c0-1.4,0-2.3-0.2-3.7c0.2,0.4,0.9,1.4,1,1.8
			c0.9,4.2,1.7,3.1,5.2,4.6l0.7,1.8c0.6,0.2,1.5,0.5,2.1,0.3l0.6-0.1c0.5-0.3,0.9-0.5,1.4-0.9c1.6,0.2,3.5,0.3,5,1.4
			c0.1,0.1,0.4,0.9,0.5,1.1c0.9,1.4,1.8,1.3,3.3,1.4l0,0.8c0.2,1,0.2,1.6,0.3,2.5c5.8,1,11.3,0.9,17.2,1.1c-0.5,2.4-1.1,3.7-2.5,5.8
			c-0.2,0.2-0.7,1-0.9,1.2c-0.8-0.3-1.7-0.6-2.5-0.9c-8.4-2.5-20.4-8.4-27.8-13.3C39.2,36.8,36.7,34.7,35,33.3z"/>
		<path class="st5" d="M48.4,36.9c1.6,0.2,3.5,0.3,5,1.4c0.1,0.1,0.4,0.9,0.5,1.1c-0.3,0.5-0.4,0.5-0.9,0.7c-1.6-0.1-6,0.4-6.7-1.1
			c0.1-0.5,0.3-0.7,0.7-1.1C47.6,37.4,47.9,37.2,48.4,36.9z"/>
		<path class="st1" d="M68.7,51.2l0.3-0.7c0.7-1.7,0.8-3.7,1.4-5c0.3,1.2-0.6,4-0.9,5.2c0.8,0,2-0.1,2.7,0.2c-0.2,0.2-0.7,1-0.9,1.2
			C70.5,51.8,69.5,51.4,68.7,51.2z"/>
		<path class="st6" d="M53.9,39.3c0.9,1.4,1.8,1.3,3.3,1.4l0,0.8c-0.3,0.3-0.3,0.3-0.7,0.5C55.3,42.1,54,40.8,53,40
			C53.6,39.8,53.6,39.8,53.9,39.3z"/>
		<path class="st7" d="M45.9,29.5c2.6-0.7,8,0,10.9,0c-0.1,3.7,0.2,7.6,0.3,11.3c-1.5-0.1-2.4,0-3.3-1.4c-0.1-0.2-0.3-1-0.5-1.1
			c-1.5-1.1-3.4-1.2-5-1.4c-0.5,0.3-0.8,0.6-1.4,0.9l-0.6,0.1c-2.1-0.9-1.6-2.1-2.3-4c-0.5-1.2-1.3,0.4-2.5,0
			c-1.6-2.2,0.2-5.2,2.9-4.1c0.8,0.3,1.2,2.1,1.5,3c0.6-0.1,1.3,0,1.9,0c-0.4-0.5-1.3-1.4-1.5-2C46.2,30,46.5,30.2,45.9,29.5z"/>
		<path class="st6" d="M47.9,32.6c0.6,0.5,1.2,1,1.9,1.4c-2.4,1.3-2.1-0.3-3.9-1.1l0.1-0.3C46.5,32.5,47.3,32.6,47.9,32.6z"/>
		<path class="st8" d="M45.8,19.7c0.6-0.5,1.2-0.3,1.9-0.2c-0.8,0.9-0.7,1.2-0.8,2.4l-0.2,0c-0.3,0.6-0.9,1.6-1.3,2.1
			c-0.1-0.2-0.1-0.3-0.1-0.4c0.1-1.4-1.3-1.4-2-2.4c-0.2-0.2-0.1-0.2,0-0.6C43.9,19.8,44.8,19.8,45.8,19.7z"/>
		<path class="st9" d="M45.8,19.7c0.6-0.5,1.2-0.3,1.9-0.2c-0.8,0.9-0.7,1.2-0.8,2.4l-0.2,0C46.5,21.1,46.5,20.2,45.8,19.7z"/>
		<path class="st8" d="M60.7,21.8c0-0.7,0.1-5-0.1-5.5c-0.3-0.1-0.6-0.3-0.9-0.4l0.4,0.1l0.2-0.3c0.8-0.1,1.9,0,2.8,0
			c1.6,0,5.3,1.4,6.3,2.7l0.1,0.1c1.5,0.7,3.4,2.1,4.1,3.5l0.5,0.2c0.7,0.5,1.3,2.2,1.7,3c-1.5,0-3.2,0.1-4.8,0l-0.2,0
			c-4.6,0.1-9.2,0-13.9,0.2l-0.1,3.8c-3,0-8.4-0.7-10.9,0c-0.2-0.9,0.8-3.2,1.7-3.7c1.6-0.7,0.4-1.5,1.9-2.9l-0.3-0.4
			c1.7-0.1,3.2-0.3,4.8-0.4C56.3,21.9,58.5,21.8,60.7,21.8z"/>
		<path class="st8" d="M74.1,22.4c0.7,0.5,1.3,2.2,1.7,3c-1.5,0-3.2,0.1-4.8,0c0-1.1-0.2-2-0.5-3.1C71.6,22.5,73.1,22.6,74.1,22.4z"
			/>
		<path class="st8" d="M69.5,18.7c1.5,0.7,3.4,2.1,4.1,3.5L70.4,22C70.1,20.9,69.8,19.8,69.5,18.7z"/>
		<path class="st4" d="M60.7,21.8l0.6,0c0,0.9-0.3,2.3-0.3,3.3c-0.2-1.2-0.2-1.8-0.2-3c-3,0.1-5.9,0.2-8.8,0.5
			c-0.8,0.1-1.6,0.2-2.4,0.2l-0.3-0.4c1.7-0.1,3.2-0.3,4.8-0.4C56.3,21.9,58.5,21.8,60.7,21.8z"/>
		<path class="st4" d="M60.7,21.8c0-0.7,0.1-5-0.1-5.5c-0.3-0.1-0.6-0.3-0.9-0.4l0.4,0.1l0.2-0.3c0.8-0.1,1.9,0,2.8,0
			c-0.6,0.4-1.1,0.3-1.8,0.4c0,1.1-0.2,4.6,0,5.6L60.7,21.8z"/>
		<path class="st4" d="M69.4,18.6l0.1,0.1c0.3,1.1,0.6,2.2,0.8,3.3l3.3,0.2l0.5,0.2c-1,0.2-2.5,0.1-3.5,0c0.2,1.1,0.5,2,0.5,3.1
			l-0.2,0C70.6,23.7,69.2,19.9,69.4,18.6z"/>
	</g>
	<path class="st10" d="M97,52.1c-0.8,5.6-7.5,8.2-19.5,6.3c-19.8-3.2-45.2-17.6-56.3-31.8c-5.8-7.3-6.6-13.1-3.1-16.4
		c-0.1-0.6-0.2-1.3-0.2-2c0-1.6,0.4-3.2,1.2-4.6C1.2,1.9-4.6,10.2,8.9,25.1c16,17.7,49.8,34.6,72.4,37c13.8,1.5,19.8-2.9,17.7-10.5
		C98.3,51.8,97.7,52,97,52.1z"/>
	<g>
		<path class="st7" d="M81.3,62.2c-22.6-2.5-56.5-19.3-72.4-37c-6-6.6-8.2-11.9-7.2-15.7c-3.4,3.5-2,9.7,5.5,17.9
			C22.8,44.7,55.9,61.2,78,63.6c6.7,0.7,11.5,0,14.4-1.8C89.6,62.5,85.9,62.7,81.3,62.2z"/>
	</g>
	<path class="st0" d="M93.8,40.9C100,51.6,93.6,58,77.1,55.3C57.8,52.1,33,38,22,24.2C11.6,11,17.9,3.1,35.6,5.8
		c0.2-0.2,0.4-0.3,0.6-0.5c-2.3-0.7-4.6-1.4-6.9-1.9C4.8-2.3-5.2,5.9,10,22.8C25.6,40.1,58.7,56.6,80.8,59
		C98.6,60.9,103,52.9,93.8,40.9z"/>
</g>
</svg>
