<?xml version="1.0" encoding="utf-8"?>
<!-- Generator: Adobe Illustrator 28.0.0, SVG Export Plug-In . SVG Version: 6.00 Build 0)  -->
<svg version="1.1" id="Layer_1" xmlns="http://www.w3.org/2000/svg" xmlns:xlink="http://www.w3.org/1999/xlink" x="0px" y="0px"
	 viewBox="0 0 156.8 112.8" style="enable-background:new 0 0 156.8 112.8;" xml:space="preserve">
<style type="text/css">
	.st0{fill:#FFFFFF;}
	.st1{fill:#B8B7B8;}
	.st2{fill:url(#SVGID_1_);}
	.st3{fill:url(#SVGID_00000052063389224416575250000007053154300401717690_);}
	.st4{fill:#D9D9D9;}
	.st5{fill:#3B4147;}
	.st6{fill:#59585B;}
	.st7{fill:#D8D8D8;}
	.st8{fill:#FDFDFD;}
	.st9{fill:#A6A5A6;}
</style>
<g>
	<g>
		<path class="st0" d="M88.7,112.8c-31.1,0-56.4-25.3-56.4-56.4C32.3,25.3,57.6,0,88.7,0c14.9,0,28.9,5.7,39.5,16.1l-13.4,13.7
			c-7-6.9-16.3-10.7-26.1-10.7c-20.5,0-37.2,16.7-37.2,37.3s16.7,37.2,37.2,37.2c17.2,0,31.8-11.8,36-27.7H93.4V46.8H145v9.6
			C145,87.5,119.7,112.8,88.7,112.8z"/>
		<g>
			<path class="st1" d="M65.8,82.1c2.2,0.8,6.1,2.5,7.9,3c-0.8,0.5-2.1,1.2-2.8,1.8C68.5,85.3,67.3,84.5,65.8,82.1z"/>
			
				<linearGradient id="SVGID_1_" gradientUnits="userSpaceOnUse" x1="543.649" y1="-569.2559" x2="537.4265" y2="-554.4469" gradientTransform="matrix(0.4883 0 0 -0.4883 -186.3871 -186.4237)">
				<stop  offset="0" style="stop-color:#969596"/>
				<stop  offset="1" style="stop-color:#B4B3B4"/>
			</linearGradient>
			<path class="st2" d="M73.8,85.1c1.9,0.5,4.4,1.1,6.2,1.7l2.9,1.1c0.7,0.2,0.7,0.1,1.1,0.5c0,0.7-0.3,1.2-0.2,1.8
				c-4.9-0.5-8.5-0.6-12.8-3.3C71.6,86.3,72.9,85.6,73.8,85.1z"/>
			
				<linearGradient id="SVGID_00000059291509811604267220000014715987702970787713_" gradientUnits="userSpaceOnUse" x1="545.5471" y1="-521.1504" x2="595.59" y2="-461.1809" gradientTransform="matrix(0.4883 0 0 -0.4883 -186.3871 -186.4237)">
				<stop  offset="0" style="stop-color:#FDFDFD"/>
				<stop  offset="1" style="stop-color:#87888A"/>
			</linearGradient>
			<path style="fill:url(#SVGID_00000059291509811604267220000014715987702970787713_);" d="M56.8,45.9c0.3-0.8,0.6-1.6,1-2.4
				c3.8-8.3,11.7-15.9,20.4-18.9c1.7-0.6,7-2.2,8.6-1.5c0.3,1.5,0.1,1.1,1.4,2c0.3,0.8,0.3,0.8,0.2,1.7c-0.8,1.3-4.4,2.5-6,3.2
				c-0.4,1.6-0.2,2.7-1.4,3.6l-0.5-0.2c-0.8-0.9-1-2-1.4-3.2c-1.4,0.3-2.4,0.5-3.9,0.5c-1.2,1.3-1.1,1.9-1.2,3.7
				c1.8,0.1,2.2,0.4,3.8,1l0.4,0.6c-2.3,2.2-0.4,3.4-2.9,4.6c-1.6,0.7-3.1,4.3-2.7,5.8c4.1-1.2,12.6-0.1,17.2,0
				c-0.1,5.8,0.3,12,0.5,17.8l-0.1,1.2c0.4,1.5,0.4,2.4,0.4,4c9.2,1.6,17.8,1.4,27.1,1.7c-0.7,3.9-1.7,5.8-3.9,9.1
				c-0.3,0.4-1.1,1.6-1.3,1.9c-1.3-0.4-2.8-1-4-1.4c-13.2-4-32.1-13.3-43.8-20.9c-2.8-1.8-6.8-5.2-9.5-7.3
				C55.3,49.7,56.2,48.4,56.8,45.9z"/>
			<path class="st4" d="M55.1,52.5c0.2-2.8,1-4.1,1.7-6.6c1.5,2,1.3,3.7,2.4,6.1c0-2.2-0.1-3.6-0.2-5.8c0.4,0.6,1.4,2.3,1.6,2.8
				c1.5,6.5,2.6,5,8.2,7.2l1.1,2.8c1,0.3,2.4,0.8,3.3,0.5l1-0.1c0.8-0.5,1.4-0.8,2.2-1.4c2.5,0.3,5.6,0.5,7.9,2.2
				c0.2,0.2,0.6,1.3,0.8,1.7c1.3,2.2,2.8,2,5.2,2.2l-0.1,1.2c0.4,1.5,0.4,2.4,0.4,4c9.2,1.6,17.8,1.4,27.1,1.7
				c-0.7,3.9-1.7,5.8-3.9,9.1c-0.3,0.4-1.1,1.6-1.3,1.9c-1.3-0.4-2.8-1-4-1.4c-13.2-4-32.1-13.3-43.8-20.9
				C61.8,58,57.8,54.7,55.1,52.5z"/>
			<path class="st5" d="M76.3,58.1c2.5,0.3,5.6,0.5,7.9,2.2c0.2,0.2,0.6,1.3,0.8,1.7c-0.5,0.8-0.6,0.7-1.4,1
				c-2.5-0.1-9.5,0.6-10.5-1.8c0.1-0.9,0.5-1.1,1.1-1.7C75,59,75.5,58.7,76.3,58.1z"/>
			<path class="st1" d="M108.4,80.7l0.4-1.1c1.1-2.7,1.2-5.8,2.1-7.9c0.4,2-0.9,6.3-1.5,8.2c1.2,0,3.2-0.2,4.3,0.3
				c-0.3,0.4-1.1,1.6-1.3,1.9C111.1,81.7,109.6,81.1,108.4,80.7z"/>
			<path class="st6" d="M85,62c1.3,2.2,2.8,2,5.2,2.2l-0.1,1.2C89.7,66,89.6,66,89,66.3c-1.8,0.1-3.9-2.1-5.4-3.3
				C84.4,62.7,84.5,62.8,85,62z"/>
			<path class="st7" d="M72.4,46.4c4.1-1.2,12.6-0.1,17.2,0c-0.1,5.8,0.3,12,0.5,17.8c-2.4-0.2-3.8,0-5.2-2.2
				c-0.1-0.3-0.5-1.5-0.8-1.7c-2.3-1.7-5.4-1.9-7.9-2.2c-0.8,0.5-1.3,0.9-2.2,1.4l-1,0.1c-3.3-1.4-2.5-3.4-3.7-6.4c-0.8-2-2,0.7-4,0
				c-2.5-3.4,0.3-8.2,4.6-6.5c1.3,0.5,1.9,3.4,2.3,4.7c0.9-0.2,2.1-0.1,3,0c-0.7-0.7-2.1-2.2-2.4-3.1C72.8,47.3,73.2,47.7,72.4,46.4
				z"/>
			<path class="st6" d="M75.4,51.4c1,0.8,1.8,1.6,2.9,2.3c-3.7,2.1-3.3-0.4-6.1-1.7l0.2-0.5C73.3,51.3,74.5,51.4,75.4,51.4z"/>
			<path class="st8" d="M72.2,31.1c0.9-0.7,1.9-0.5,2.9-0.3c-1.2,1.3-1.1,1.9-1.2,3.7l-0.4,0c-0.4,0.9-1.4,2.5-2,3.3
				c-0.1-0.3-0.2-0.5-0.1-0.7c0.1-2.2-2-2.2-3.1-3.7c-0.3-0.4-0.2-0.3-0.1-0.9C69.2,31.2,70.6,31.3,72.2,31.1z"/>
			<path class="st9" d="M72.2,31.1c0.9-0.7,1.9-0.5,2.9-0.3c-1.2,1.3-1.1,1.9-1.2,3.7l-0.4,0C73.4,33.2,73.4,31.9,72.2,31.1z"/>
			<path class="st8" d="M95.7,34.4c0.1-1.1,0.1-7.8-0.2-8.6c-0.5-0.2-0.9-0.5-1.4-0.6l0.7,0.2l0.3-0.4c1.3-0.2,3,0,4.4,0.1
				c2.6-0.1,8.4,2.2,10,4.2l0.2,0.2c2.3,1.1,5.3,3.2,6.5,5.6l0.7,0.4c1.2,0.9,2.1,3.4,2.7,4.8c-2.4,0-5.1,0.1-7.5,0l-0.3,0
				c-7.3,0.2-14.5,0.1-21.9,0.3l-0.2,6c-4.7-0.1-13.2-1.2-17.2,0c-0.4-1.5,1.2-5.1,2.7-5.8c2.6-1.2,0.7-2.4,2.9-4.6l-0.4-0.6
				c2.7-0.1,5-0.5,7.6-0.7C88.8,34.6,92.2,34.4,95.7,34.4z"/>
			<path class="st8" d="M116.8,35.4c1.2,0.9,2.1,3.4,2.7,4.8c-2.4,0-5.1,0.1-7.5,0c-0.1-1.8-0.4-3.2-0.8-4.9
				C112.9,35.5,115.2,35.6,116.8,35.4z"/>
			<path class="st8" d="M109.6,29.4c2.3,1.1,5.3,3.2,6.5,5.6l-5.1-0.3C110.5,32.9,110.1,31.2,109.6,29.4z"/>
			<path class="st4" d="M95.7,34.4l0.9,0c0,1.3-0.4,3.7-0.5,5.2c-0.3-1.9-0.3-2.8-0.3-4.7c-4.7,0.1-9.3,0.2-13.9,0.9
				c-1.3,0.2-2.5,0.3-3.8,0.3l-0.4-0.6c2.7-0.1,5-0.5,7.6-0.7C88.8,34.6,92.2,34.4,95.7,34.4z"/>
			<path class="st4" d="M95.7,34.4c0.1-1.1,0.1-7.8-0.2-8.6c-0.5-0.2-0.9-0.5-1.4-0.6l0.7,0.2l0.3-0.4c1.3-0.2,3,0,4.4,0.1
				c-0.9,0.6-1.7,0.5-2.9,0.6c0,1.8-0.3,7.3,0,8.8L95.7,34.4z"/>
			<path class="st4" d="M109.4,29.3l0.2,0.2c0.4,1.7,0.9,3.5,1.3,5.3l5.1,0.3l0.7,0.4c-1.6,0.3-3.9,0.1-5.6-0.1
				c0.4,1.7,0.7,3.1,0.8,4.9l-0.3,0C111.3,37.4,109,31.4,109.4,29.3z"/>
		</g>
		<path class="st0" d="M156.1,81.5c-1.1,0.3-2.1,0.5-3.2,0.7c-1.2,8.8-11.9,12.9-30.7,9.9C91,86.9,51,64.2,33.4,41.9
			c-7.2-9.2-9.5-16.7-7.4-22.1c-0.7-0.7-1.2-1.7-1.2-2.8c0-2,1.5-3.6,3.3-3.9c0-0.1,0-0.1,0-0.2c0-2.5,0.7-5,1.9-7.2
			C1.9,3.1-7.2,16.1,14,39.6C39.2,67.5,92.5,94.1,128.2,98C150.1,100.4,159.4,93.4,156.1,81.5z"/>
		<g>
			<path class="st7" d="M128.2,98C92.5,94.1,39.2,67.5,14,39.6C4.6,29.2,1.2,20.8,2.7,14.9c-5.3,5.5-3.1,15.3,8.7,28.3
				C36,70.5,88.1,96.4,123,100.2c10.6,1.2,18.2,0.1,22.8-2.8C141.2,98.5,135.4,98.8,128.2,98z"/>
		</g>
		<path class="st7" d="M147.8,64.4c9.9,16.9-0.2,27-26.4,22.7c-30.4-5-69.5-27.2-86.7-48.9c-16.5-20.8-6.6-33.4,21.4-29
			c0.3-0.3,0.6-0.5,0.9-0.8c-3.7-1.1-7.3-2.2-10.8-3C7.6-3.7-8.3,9.3,15.8,36c24.6,27.2,76.7,53.2,111.6,57
			C155.4,96,162.4,83.3,147.8,64.4z"/>
	</g>
</g>
</svg>
