<?xml version="1.0" encoding="utf-8"?>
<!-- Generator: Adobe Illustrator 28.0.0, SVG Export Plug-In . SVG Version: 6.00 Build 0)  -->
<svg version="1.1" id="Layer_1" xmlns="http://www.w3.org/2000/svg" xmlns:xlink="http://www.w3.org/1999/xlink" x="0px" y="0px"
	 viewBox="0 0 87.7 63.1" style="enable-background:new 0 0 87.7 63.1;" xml:space="preserve">
<style type="text/css">
	.st0{fill:#115389;}
	.st1{fill:#B8B7B8;}
	.st2{fill:url(#SVGID_1_);}
	.st3{fill:url(#SVGID_00000114068018100110358150000010924932506411817399_);}
	.st4{fill:#D9D9D9;}
	.st5{fill:#3B4147;}
	.st6{fill:#59585B;}
	.st7{fill:#D8D8D8;}
	.st8{fill:#FDFDFD;}
	.st9{fill:#A6A5A6;}
	.st10{fill:#FFFFFF;}
</style>
<g>
	<path class="st0" d="M49.6,63.1c-17.4,0-31.5-14.1-31.5-31.5C18.1,14.1,32.2,0,49.6,0c8.3,0,16.2,3.2,22.1,9l-7.5,7.6
		c-3.9-3.8-9.1-6-14.6-6c-11.5,0-20.8,9.3-20.8,20.8s9.3,20.8,20.8,20.8c9.6,0,17.8-6.6,20.1-15.5H52.3V26.2h28.9v5.3
		C81.1,48.9,67,63.1,49.6,63.1z"/>
	<g>
		<path class="st1" d="M36.8,45.9c1.3,0.4,3.4,1.4,4.4,1.7c-0.5,0.3-1.2,0.7-1.6,1C38.3,47.7,37.7,47.3,36.8,45.9z"/>
		
			<linearGradient id="SVGID_1_" gradientUnits="userSpaceOnUse" x1="759.3008" y1="-409.7646" x2="755.8198" y2="-401.4801" gradientTransform="matrix(0.4883 0 0 -0.4883 -326.5211 -148.875)">
			<stop  offset="0" style="stop-color:#969596"/>
			<stop  offset="1" style="stop-color:#B4B3B4"/>
		</linearGradient>
		<path class="st2" d="M41.3,47.6c1.1,0.3,2.5,0.6,3.4,1l1.6,0.6c0.4,0.1,0.4,0,0.6,0.3c0,0.4-0.1,0.7-0.1,1
			c-2.8-0.3-4.8-0.3-7.1-1.9C40.1,48.3,40.8,47.9,41.3,47.6z"/>
		
			<linearGradient id="SVGID_00000132792094392587196080000012824612879620376456_" gradientUnits="userSpaceOnUse" x1="760.3626" y1="-382.8535" x2="788.3575" y2="-349.3055" gradientTransform="matrix(0.4883 0 0 -0.4883 -326.5211 -148.875)">
			<stop  offset="0" style="stop-color:#5A5B5E"/>
			<stop  offset="1" style="stop-color:#87888A"/>
		</linearGradient>
		<path style="fill:url(#SVGID_00000132792094392587196080000012824612879620376456_);" d="M31.8,25.7c0.2-0.4,0.4-0.9,0.6-1.3
			c2.2-4.6,6.6-8.9,11.4-10.6c0.9-0.3,3.9-1.3,4.8-0.8c0.2,0.9,0.1,0.6,0.8,1.1c0.2,0.5,0.2,0.4,0.1,0.9c-0.4,0.8-2.4,1.4-3.4,1.8
			c-0.2,0.9-0.1,1.5-0.8,2L45,18.7c-0.5-0.5-0.6-1.1-0.8-1.8c-0.8,0.1-1.4,0.3-2.2,0.3c-0.7,0.8-0.6,1-0.7,2.1c1,0,1.2,0.2,2.1,0.5
			l0.2,0.3c-1.3,1.3-0.2,1.9-1.6,2.6c-0.9,0.4-1.7,2.4-1.5,3.2c2.3-0.7,7,0,9.6,0c-0.1,3.2,0.2,6.7,0.3,10l0,0.7
			c0.2,0.9,0.2,1.4,0.2,2.2c5.1,0.9,9.9,0.8,15.1,1c-0.4,2.2-1,3.3-2.2,5.1c-0.1,0.2-0.6,0.9-0.8,1.1c-0.7-0.2-1.5-0.6-2.2-0.8
			c-7.4-2.2-18-7.4-24.5-11.7c-1.6-1-3.8-2.9-5.3-4.1C30.9,27.8,31.4,27.1,31.8,25.7z"/>
		<path class="st4" d="M30.8,29.4c0.1-1.5,0.6-2.3,0.9-3.7c0.9,1.1,0.8,2.1,1.4,3.4c0-1.2,0-2-0.1-3.3c0.2,0.3,0.8,1.3,0.9,1.6
			c0.8,3.7,1.5,2.8,4.6,4.1l0.6,1.6c0.5,0.1,1.3,0.5,1.8,0.3l0.6-0.1c0.5-0.3,0.8-0.5,1.2-0.8c1.4,0.2,3.1,0.3,4.4,1.2
			c0.1,0.1,0.4,0.8,0.4,0.9c0.8,1.2,1.6,1.1,2.9,1.3l0,0.7c0.2,0.9,0.2,1.4,0.2,2.2c5.1,0.9,9.9,0.8,15.1,1c-0.4,2.2-1,3.3-2.2,5.1
			c-0.1,0.2-0.6,0.9-0.8,1.1c-0.7-0.2-1.5-0.6-2.2-0.8c-7.4-2.2-18-7.4-24.5-11.7C34.6,32.4,32.3,30.6,30.8,29.4z"/>
		<path class="st5" d="M42.7,32.5c1.4,0.2,3.1,0.3,4.4,1.2c0.1,0.1,0.4,0.8,0.4,0.9c-0.3,0.4-0.3,0.4-0.8,0.6
			c-1.4-0.1-5.3,0.3-5.9-1c0.1-0.5,0.3-0.6,0.6-1C42,33,42.3,32.8,42.7,32.5z"/>
		<path class="st1" d="M60.6,45.2l0.2-0.6c0.6-1.5,0.7-3.2,1.2-4.4c0.2,1.1-0.5,3.5-0.8,4.6c0.7,0,1.8-0.1,2.4,0.2
			c-0.1,0.2-0.6,0.9-0.8,1.1C62.2,45.7,61.3,45.4,60.6,45.2z"/>
		<path class="st6" d="M47.5,34.7c0.8,1.2,1.6,1.1,2.9,1.3l0,0.7c-0.2,0.3-0.3,0.3-0.6,0.5c-1,0.1-2.2-1.2-3-1.8
			C47.2,35.1,47.3,35.1,47.5,34.7z"/>
		<path class="st7" d="M40.5,26c2.3-0.7,7,0,9.6,0c-0.1,3.2,0.2,6.7,0.3,10c-1.3-0.1-2.1,0-2.9-1.3c-0.1-0.2-0.3-0.8-0.4-0.9
			c-1.3-0.9-3-1-4.4-1.2c-0.4,0.3-0.7,0.5-1.2,0.8l-0.6,0.1c-1.8-0.8-1.4-1.9-2-3.6c-0.4-1.1-1.1,0.4-2.2,0
			c-1.4-1.9,0.2-4.6,2.6-3.6c0.7,0.3,1.1,1.9,1.3,2.6c0.5-0.1,1.2,0,1.7,0c-0.4-0.4-1.2-1.2-1.3-1.7C40.7,26.5,41,26.7,40.5,26z"/>
		<path class="st6" d="M42.2,28.8c0.6,0.5,1,0.9,1.6,1.3c-2.1,1.2-1.8-0.2-3.4-1l0.1-0.3C41,28.7,41.7,28.7,42.2,28.8z"/>
		<path class="st8" d="M40.4,17.4c0.5-0.4,1-0.3,1.6-0.2c-0.7,0.8-0.6,1-0.7,2.1l-0.2,0c-0.2,0.5-0.8,1.4-1.1,1.8
			c0-0.2-0.1-0.3-0.1-0.4c0.1-1.2-1.1-1.3-1.7-2.1c-0.2-0.2-0.1-0.2,0-0.5C38.7,17.5,39.5,17.5,40.4,17.4z"/>
		<path class="st9" d="M40.4,17.4c0.5-0.4,1-0.3,1.6-0.2c-0.7,0.8-0.6,1-0.7,2.1l-0.2,0C41,18.6,41,17.8,40.4,17.4z"/>
		<path class="st8" d="M53.6,19.2c0-0.6,0-4.4-0.1-4.8c-0.3-0.1-0.5-0.3-0.8-0.4l0.4,0.1l0.2-0.2c0.7-0.1,1.7,0,2.4,0
			c1.4,0,4.7,1.2,5.6,2.4l0.1,0.1c1.3,0.6,3,1.8,3.6,3.1l0.4,0.2c0.7,0.5,1.2,1.9,1.5,2.7c-1.4,0-2.9,0.1-4.2,0l-0.2,0
			c-4.1,0.1-8.1,0-12.2,0.2L50.2,26c-2.6,0-7.4-0.7-9.6,0c-0.2-0.8,0.7-2.8,1.5-3.2c1.4-0.7,0.4-1.3,1.6-2.6l-0.2-0.3
			c1.5-0.1,2.8-0.3,4.2-0.4C49.7,19.3,51.6,19.3,53.6,19.2z"/>
		<path class="st8" d="M65.4,19.8c0.7,0.5,1.2,1.9,1.5,2.7c-1.4,0-2.9,0.1-4.2,0c0-1-0.2-1.8-0.4-2.7C63.1,19.9,64.5,19.9,65.4,19.8
			z"/>
		<path class="st8" d="M61.3,16.5c1.3,0.6,3,1.8,3.6,3.1l-2.9-0.2C61.8,18.4,61.6,17.4,61.3,16.5z"/>
		<path class="st4" d="M53.6,19.2l0.5,0c0,0.8-0.2,2.1-0.3,2.9c-0.2-1.1-0.2-1.5-0.1-2.6c-2.6,0.1-5.2,0.1-7.8,0.5
			c-0.7,0.1-1.4,0.2-2.1,0.2l-0.2-0.3c1.5-0.1,2.8-0.3,4.2-0.4C49.7,19.3,51.6,19.3,53.6,19.2z"/>
		<path class="st4" d="M53.6,19.2c0-0.6,0-4.4-0.1-4.8c-0.3-0.1-0.5-0.3-0.8-0.4l0.4,0.1l0.2-0.2c0.7-0.1,1.7,0,2.4,0
			c-0.5,0.3-1,0.3-1.6,0.3c0,1-0.1,4.1,0,4.9L53.6,19.2z"/>
		<path class="st4" d="M61.2,16.4l0.1,0.1c0.2,1,0.5,2,0.7,2.9l2.9,0.2l0.4,0.2c-0.9,0.1-2.2,0.1-3.1,0c0.2,0.9,0.4,1.7,0.4,2.7
			l-0.2,0C62.3,20.9,61,17.5,61.2,16.4z"/>
	</g>
	<path class="st10" d="M85.5,46c-0.7,4.9-6.6,7.2-17.2,5.5c-17.4-2.8-39.8-15.6-49.7-28C13.5,17,12.9,11.9,15.9,9
		c-0.1-0.6-0.2-1.1-0.2-1.7c0-1.4,0.4-2.8,1.1-4C1.1,1.7-4,9,7.8,22.2c14.1,15.6,43.9,30.5,63.9,32.7c12.2,1.3,17.5-2.6,15.6-9.3
		C86.7,45.7,86.1,45.8,85.5,46z"/>
	<g>
		<path class="st7" d="M71.7,54.8c-20-2.2-49.8-17.1-63.9-32.7C2.6,16.3,0.6,11.6,1.5,8.4c-3,3.1-1.7,8.5,4.9,15.8
			c13.8,15.2,42.9,29.8,62.4,31.9c5.9,0.6,10.2,0,12.7-1.6C79,55.1,75.8,55.3,71.7,54.8z"/>
	</g>
	<path class="st0" d="M82.7,36c5.5,9.5-0.1,15.1-14.7,12.7c-17-2.8-38.9-15.2-48.5-27.4c-9.2-11.6-3.7-18.7,12-16.2
		c0.2-0.1,0.3-0.3,0.5-0.4c-2-0.6-4.1-1.2-6.1-1.7C4.3-2.1-4.6,5.2,8.9,20.1C22.6,35.4,51.8,49.9,71.3,52C87,53.7,90.9,46.6,82.7,36
		z"/>
</g>
</svg>
