<?xml version="1.0" encoding="utf-8"?>
<!-- Generator: Adobe Illustrator 27.1.0, SVG Export Plug-In . SVG Version: 6.00 Build 0)  -->
<svg version="1.1" id="Layer_1" xmlns="http://www.w3.org/2000/svg" xmlns:xlink="http://www.w3.org/1999/xlink" x="0px" y="0px"
	 viewBox="0 0 404.3 123.3" style="enable-background:new 0 0 404.3 123.3;" xml:space="preserve">
<style type="text/css">
	.st0{clip-path:url(#SVGID_00000119820880506061068530000016328323062263882139_);}
	.st1{fill:#EDBE00;}
	.st2{clip-path:url(#SVGID_00000049182508655518998950000018046972261240624013_);}
	.st3{fill:#C8B50A;}
	.st4{fill:#FFFFFF;}
	.st5{clip-path:url(#SVGID_00000070822464444062344720000007387051486507954580_);}
	.st6{clip-path:url(#SVGID_00000132079563012761271640000010525996740388607891_);}
	.st7{clip-path:url(#SVGID_00000158011188337538491860000000741079822606884018_);}
	.st8{fill-rule:evenodd;clip-rule:evenodd;fill:#C8B50A;}
	.st9{fill:none;stroke:#FFFFFF;stroke-width:5;}
	.st10{fill:#FFFFFF;stroke:#FFFFFF;stroke-width:5;}
</style>
<g>
	<g>
		<g>
			<g>
				<defs>
					<rect id="SVGID_1_" x="0" width="75.3" height="112"/>
				</defs>
				<clipPath id="SVGID_00000085950368179182745280000018096870624297860286_">
					<use xlink:href="#SVGID_1_"  style="overflow:visible;"/>
				</clipPath>
				<g style="clip-path:url(#SVGID_00000085950368179182745280000018096870624297860286_);">
					<path class="st1" d="M49.4,55.4C42,38.2,31.2,14.1,25,0H0l29.9,67.7L49.6,112l24.9-56c-4.2-1.4-8.8-2.2-13.5-2.2
						c-3.9,0-7.7,0.5-11.3,1.5c-0.1,0.2-0.1,0.3-0.2,0.5C49.5,55.7,49.5,55.6,49.4,55.4"/>
				</g>
			</g>
		</g>
	</g>
</g>
<g>
	<g>
		<g>
			<g>
				<defs>
					<rect id="SVGID_00000085963040135405797290000008223295186545931446_" x="41.9" width="64.1" height="47.7"/>
				</defs>
				<clipPath id="SVGID_00000123427595615021931700000013428195048580561552_">
					<use xlink:href="#SVGID_00000085963040135405797290000008223295186545931446_"  style="overflow:visible;"/>
				</clipPath>
				<g style="clip-path:url(#SVGID_00000123427595615021931700000013428195048580561552_);">
					<path class="st3" d="M106,0H42.4v22.8h23L51.8,47.2c4.6-1.8,9.5-2.7,14.7-2.7c4.4,0,8.7,0.7,12.7,2L106,0"/>
				</g>
			</g>
		</g>
	</g>
</g>
<g>
	<g transform="translate(136.302491, 204.220357)">
		<g>
			<path class="st4" d="M-33.7-97.5h-12.2l10.2-48.3h-14.1l2.2-10.4h40.5l-2.2,10.4h-14.2L-33.7-97.5z"/>
		</g>
	</g>
</g>
<g>
	<g transform="translate(169.025199, 204.220357)">
		<g>
			<path class="st4" d="M-29.4-96.7c-3.9,0-7-1.4-9.3-4.3c-2.3-2.9-3.4-6.9-3.4-12c0-5.3,1-10.3,2.9-15.1s4.5-8.5,7.6-11.2
				c3.1-2.6,6.6-4,10.3-4c2.6,0,4.8,0.6,6.7,1.7c1.9,1.1,3.4,2.8,4.4,4.9h0.3l2.3-5.7h9.3l-9.5,44.9H-17l0.6-5.8h-0.2
				C-20.2-98.9-24.5-96.7-29.4-96.7z M-24.7-106.5c1.8,0,3.6-0.9,5.3-2.7s3.1-4.2,4.1-7.3s1.6-6.5,1.6-10.4c0-1.9-0.5-3.5-1.5-4.7
				s-2.4-1.9-4.1-1.9c-1.8,0-3.6,1-5.2,2.9c-1.6,1.9-3,4.5-3.9,7.6c-1,3.2-1.5,6.3-1.5,9.4c0,2.4,0.4,4.1,1.3,5.3
				C-27.6-107.1-26.3-106.5-24.7-106.5z"/>
		</g>
	</g>
</g>
<g>
	<g transform="translate(205.661385, 204.220357)">
		<g>
			<path class="st4" d="M-0.9-143.3c3.9,0,7,1.5,9.2,4.4c2.3,2.9,3.4,6.9,3.4,12s-0.9,10-2.7,14.8s-4.3,8.5-7.5,11.3
				s-6.7,4.2-10.6,4.2c-5.2,0-8.9-2.2-11.1-6.6h-0.3l-2.3,5.8H-32l13.3-62.5h12.1l-2.5,11.6c-1.1,4.9-2.2,8.9-3.4,12h0.3
				c2.1-2.6,4-4.4,5.7-5.4C-4.8-142.8-2.9-143.3-0.9-143.3z M-5.7-133.4c-1.8,0-3.6,0.9-5.2,2.6c-1.7,1.7-3,4.2-4.1,7.2
				c-1.1,3.1-1.6,6.4-1.6,10c0,2.1,0.5,3.9,1.5,5.1c1,1.3,2.4,1.9,4.1,1.9c1.8,0,3.5-0.9,5.1-2.8c1.6-1.8,3-4.4,4-7.6
				s1.5-6.4,1.5-9.5C-0.5-131.1-2.2-133.4-5.7-133.4z"/>
		</g>
	</g>
</g>
<g>
	<g transform="translate(242.357778, 204.220357)">
		<g>
			<path class="st4" d="M12-112.3c0,5-1.7,8.9-5,11.6s-8,4-13.9,4c-2.9,0-5.4-0.2-7.5-0.6c-2.1-0.4-4.1-1.1-6-2v-10
				c4.2,2.4,8.5,3.6,12.8,3.6c2.1,0,3.9-0.4,5.2-1.3c1.4-0.9,2.1-2.1,2.1-3.6c0-1.2-0.5-2.2-1.5-3.1c-1-0.9-2.7-2.1-5.2-3.5
				c-3.2-1.8-5.5-3.6-6.8-5.4c-1.3-1.8-1.9-3.9-1.9-6.4c0-4.5,1.5-8.1,4.4-10.6c3-2.5,7.2-3.8,12.7-3.8c5.4,0,10.2,1.3,14.6,3.8
				l-4,8.6c-3.7-2.2-7.2-3.4-10.4-3.4c-1.5,0-2.8,0.3-3.7,1s-1.4,1.6-1.4,2.8c0,1,0.4,2,1.3,2.8s2.5,1.8,4.8,3
				c3.3,1.7,5.7,3.5,7.1,5.5C11.3-117.2,12-114.9,12-112.3z"/>
		</g>
	</g>
</g>
<g>
	<g>
		<g>
			<g>
				<defs>
					<rect id="SVGID_00000129903906871727858300000016427216939286246543_" x="251.3" y="41.1" width="45.3" height="40"/>
				</defs>
				<clipPath id="SVGID_00000168106180050626206800000006071506380992317602_">
					<use xlink:href="#SVGID_00000129903906871727858300000016427216939286246543_"  style="overflow:visible;"/>
				</clipPath>
				<g style="clip-path:url(#SVGID_00000168106180050626206800000006071506380992317602_);">
					<g>
						<g>
							<g>
								<g>
									<defs>
										
											<rect id="SVGID_00000070105832677363234810000002624143981659586210_" x="250.5" y="37.4" transform="matrix(0.1824 -0.9832 0.9832 0.1824 164.5301 314.7434)" width="42" height="42"/>
									</defs>
									<clipPath id="SVGID_00000095302562526660087650000017277574248010700175_">
										<use xlink:href="#SVGID_00000070105832677363234810000002624143981659586210_"  style="overflow:visible;"/>
									</clipPath>
									<g style="clip-path:url(#SVGID_00000095302562526660087650000017277574248010700175_);">
										<g>
											<g>
												<g>
													<g>
														<defs>
															
																<rect id="SVGID_00000126302826684038454250000011430049021726666641_" x="250.5" y="37.4" transform="matrix(0.1824 -0.9832 0.9832 0.1824 164.5302 314.7435)" width="42" height="42"/>
														</defs>
														<clipPath id="SVGID_00000181045382623530691100000003434411741368354702_">
															<use xlink:href="#SVGID_00000126302826684038454250000011430049021726666641_"  style="overflow:visible;"/>
														</clipPath>
														<g style="clip-path:url(#SVGID_00000181045382623530691100000003434411741368354702_);">
															<path class="st8" d="M295,45.1c0.5-0.9,0.5-2-0.1-2.8s-1.6-1.3-2.6-1.1L254,47.4c-1.1,0.2-2,1.1-2.2,2.2
																c-0.2,1.1,0.4,2.2,1.4,2.7l15.7,7.8l1.7,17.5c0.1,1.1,0.9,2.1,2,2.3c1.1,0.2,2.2-0.3,2.8-1.2L295,45.1z M287.7,47.3
																L275,69.1l-1-10.8c-0.1-0.9-0.6-1.7-1.4-2.1l-9.7-4.8L287.7,47.3z"/>
														</g>
													</g>
												</g>
											</g>
										</g>
									</g>
								</g>
							</g>
						</g>
					</g>
				</g>
			</g>
		</g>
	</g>
</g>
<path class="st9" d="M246.9,57.8l-3.3,11.6"/>
<path class="st10" d="M236.8,102.4l-2.5,11.8"/>
<g>
	<g transform="translate(125.557769, 232.030826)">
	</g>
</g>
<g>
	<g transform="translate(156.576082, 232.030826)">
	</g>
</g>
<g>
	<g transform="translate(171.036458, 232.030826)">
	</g>
</g>
<g>
	<g transform="translate(191.940578, 232.030826)">
	</g>
</g>
<g>
	<path class="st4" d="M284.2,107.2l9.3-51.5l19.8,0.1c5,0,8.7,1.2,11.1,3.6s3.6,5.7,3.5,9.9c0,4.4-1,8.1-2.8,11.1
		c-1.8,3-4.2,5.3-7.3,6.8c-3,1.5-6.3,2.2-10,2.2l-10.4-0.1l-3.3,17.9L284.2,107.2z M317.6,70.7c0-4.2-2.4-6.3-7.3-6.3l-8.2-0.1
		l-3,16.6l8,0.1c3.2,0,5.8-0.9,7.6-2.7C316.6,76.4,317.6,73.9,317.6,70.7z"/>
	<path class="st4" d="M349.5,102.5l-0.9,0c-1.4,2-2.9,3.4-4.6,4.4c-1.7,1-3.6,1.5-5.8,1.5c-4,0-6.8-1.5-8.3-4.4
		c-1.5-2.9-2.2-6.5-2.2-10.6c0-4.2,0.7-8.1,2-11.8c1.3-3.7,3.2-6.7,5.7-9c2.5-2.3,5.5-3.4,9-3.4c2.4,0,4.3,0.6,5.7,1.7
		s2.5,2.7,3.3,4.7l0.9,0l1-5.4l9.2,0.1l-5.4,29.7c-0.3,1.5-0.4,3.1-0.4,4.6c0,0.9,0.1,1.6,0.2,2.2l0,1l-9.7-0.1
		c-0.1-0.3-0.2-0.9-0.2-1.6S349.2,104.1,349.5,102.5z M346.9,77.2c-1.8,0-3.4,0.7-4.8,2.3c-1.4,1.5-2.5,3.5-3.3,5.9
		c-0.8,2.5-1.2,5-1.2,7.7c0,2.3,0.3,4.1,1.1,5.3c0.7,1.2,2,1.9,3.7,1.9c1.8,0,3.4-0.7,4.8-2.3c1.4-1.5,2.5-3.5,3.3-5.9
		c0.8-2.5,1.2-5,1.2-7.7c0-2.3-0.4-4.1-1.1-5.3C349.9,77.9,348.6,77.2,346.9,77.2z"/>
	<path class="st4" d="M384.4,111.4c-1.9,3.9-4,6.9-6.3,8.9c-2.2,2-5.1,3-8.6,3c-3.9,0-6.6-0.8-8.2-2.5s-2.4-3.7-2.3-6.2
		c0-0.7,0.1-1.6,0.4-2.6l9.2,0.1c-0.1,0.5-0.2,0.9-0.2,1.2c0,1.7,0.8,2.6,2.4,2.6c0.8,0,1.6-0.3,2.2-0.9c0.6-0.6,1.3-1.6,2-3.1
		l2.9-5.7l-4.1,0l-4.4-34.9l0-1l9.5,0.1l2.7,26l0.9,0l12.1-25.9l9.7,0.1l0,1L384.4,111.4z"/>
</g>
<text transform="matrix(0.9008 6.499910e-03 -7.215626e-03 1 316.9191 204.4971)" style="display:none;fill:#FFFFFF; font-family:'ReferenzGrotesk-BoldItalic'; font-size:73.7284px;">Pay</text>
</svg>
