<?xml version="1.0" encoding="utf-8"?>
<!-- Generator: Adobe Illustrator 24.0.0, SVG Export Plug-In . SVG Version: 6.00 Build 0)  -->
<svg version="1.1" xmlns="http://www.w3.org/2000/svg" xmlns:xlink="http://www.w3.org/1999/xlink" x="0px" y="0px"
	 viewBox="0 0 184 237.07" style="enable-background:new 0 0 184 237.07;" xml:space="preserve">
<style type="text/css">
	.st0{fill:#EA9323;}
	.st1{fill:none;}
	.st2{opacity:0.8;fill:url(#SVGID_1_);}
	.st3{fill:#FFFFFF;}
	.st4{fill:url(#SVGID_2_);}
	.st5{opacity:0.8;fill:url(#SVGID_3_);}
	.st6{fill:#EF9629;}
	.st7{fill:url(#SVGID_4_);}
</style>
<g id="Layer_1">
	<g>
		<path class="st0" d="M-372.09,212.73c-0.21-0.28-0.29-0.36-0.34-0.46c-3.64-6.86-7.29-13.71-10.93-20.57
			c-5.09-9.58-10.18-19.17-15.24-28.77c-0.32-0.6-0.66-0.83-1.35-0.82c-2.76,0.04-5.52,0.02-8.28,0.02c-0.61,0-1.21,0-1.88,0
			c0,0.58,0,0.96,0,1.33c0,19.48,0,38.97,0,58.45c0,0.37,0.05,0.75,0.07,1.12c2.6,0,5.2,0,7.8,0c0.02-0.54,0.07-1.09,0.07-1.63
			c0-16.05,0-32.1,0-48.14c0-0.23,0-0.47,0-0.7c0.08-0.03,0.15-0.05,0.23-0.08c8.95,16.85,17.9,33.7,26.85,50.55
			c3.69,0,7.38,0,11.07,0c0-20.27,0-40.53,0-60.82c-2.74,0-5.35,0-8.07,0C-372.09,179.05-372.09,195.79-372.09,212.73z"/>
		<path class="st1" d="M-386.75,98.45c0.05-3.98,0.02-7.96,0.01-11.94c-0.06-16.13-0.1-32.25-0.18-48.38c0-0.74-0.03-1.49-0.04-2.23
			v63.49C-386.83,99.08-386.75,98.75-386.75,98.45z"/>
		<path class="st1" d="M-387.64,25.21c-23.42,49.82-46.84,99.64-70.26,149.46c0.11,0.08,0.23,0.16,0.34,0.24
			c0.32-0.39,0.61-0.8,0.95-1.17c5.3-5.64,10.61-11.28,15.92-16.92c9.5-10.09,19-20.17,28.5-30.26
			c8.26-8.78,16.53-17.56,24.76-26.37c0.2-0.21,0.37-0.49,0.49-0.79V35.9c-0.05-3.51-0.14-7.03-0.22-10.55
			C-387.33,25.31-387.49,25.26-387.64,25.21z"/>
		<path class="st0" d="M-307.13,185.75c-0.36-0.98-0.57-2.02-0.99-2.96c-4.78-10.66-9.51-21.34-14.41-31.94
			c-6.54-14.16-13.23-28.26-19.86-42.39c-6.27-13.38-12.52-26.76-18.8-40.12c-6.73-14.3-13.48-28.59-20.22-42.89
			c-1.72-3.64-3.45-7.27-5.26-11.1c-0.11,0.19-0.2,0.34-0.28,0.47V35.9c0.01,0.74,0.03,1.49,0.04,2.23
			c0.08,16.13,0.13,32.25,0.18,48.38c0.01,3.98,0.04,7.96-0.01,11.94c0,0.3-0.08,0.63-0.21,0.94v7.6c0.35,0.29,0.68,0.57,0.98,0.87
			c1.59,1.6,3.18,3.21,4.75,4.84c6.21,6.46,12.44,12.9,18.61,19.4c8.27,8.71,16.49,17.48,24.75,26.2
			c6.91,7.29,13.83,14.57,20.78,21.84c2.37,2.48,4.83,4.88,7.22,7.34c0.79,0.81,1.44,0.26,2.13-0.08
			C-307.01,187.05-306.85,186.5-307.13,185.75z"/>
		<linearGradient id="SVGID_1_" gradientUnits="userSpaceOnUse" x1="-451.679" y1="100.3986" x2="-339.0125" y2="104.732">
			<stop  offset="0" style="stop-color:#FBB040;stop-opacity:0.3"/>
			<stop  offset="0.0357" style="stop-color:#FBAE3D;stop-opacity:0.325"/>
			<stop  offset="0.354" style="stop-color:#F99F2A;stop-opacity:0.5478"/>
			<stop  offset="0.6749" style="stop-color:#F89620;stop-opacity:0.7725"/>
			<stop  offset="1" style="stop-color:#F7941D"/>
		</linearGradient>
		<path class="st2" d="M-387.45,100.18c-8.23,8.81-16.49,17.59-24.76,26.37c-9.5,10.09-19,20.17-28.5,30.26
			c-5.31,5.64-10.61,11.28-15.92,16.92c-0.34,0.37-0.64,0.78-0.95,1.17c-0.11-0.08-0.23-0.16-0.34-0.24
			c23.42-49.82,46.84-99.64,70.26-149.46c0.16,0.05,0.31,0.1,0.47,0.14c0.07,3.52,0.17,7.03,0.22,10.55V14.82
			c-0.1,0.18-0.19,0.32-0.26,0.46c-3.37,6.9-6.77,13.78-10.08,20.7c-5.77,12.04-11.51,24.1-17.22,36.17
			c-8.74,18.48-17.48,36.96-26.16,55.46c-7.17,15.29-14.3,30.61-21.36,45.96c-1.72,3.74-3.1,7.64-4.68,11.45
			c-0.56,1.36,0.2,1.96,1.17,2.63c1.09,0.75,1.57-0.05,2.16-0.67c9.69-10.19,19.4-20.37,29.08-30.58
			c8.61-9.08,17.18-18.21,25.76-27.31c3.53-3.75,7.06-7.5,10.6-11.23c3.51-3.71,7.04-7.4,10.63-11.16c0.12,0.1,0.24,0.2,0.35,0.3
			v-7.6C-387.08,99.69-387.25,99.98-387.45,100.18z"/>
	</g>
</g>
<g id="Layer_3">
	<g>
		<path class="st0" d="M-110.76,198.37c-0.21-0.28-0.29-0.36-0.34-0.46c-3.64-6.86-7.29-13.71-10.93-20.57
			c-5.09-9.58-10.18-19.17-15.24-28.77c-0.32-0.6-0.66-0.83-1.35-0.82c-2.76,0.04-5.52,0.02-8.28,0.02c-0.61,0-1.21,0-1.88,0
			c0,0.58,0,0.96,0,1.33c0,19.48,0,38.97,0,58.45c0,0.37,0.05,0.75,0.07,1.12c2.6,0,5.2,0,7.8,0c0.02-0.54,0.07-1.09,0.07-1.63
			c0-16.05,0-32.1,0-48.14c0-0.23,0-0.47,0-0.7c0.08-0.03,0.15-0.05,0.23-0.08c8.95,16.85,17.9,33.7,26.85,50.55
			c3.69,0,7.38,0,11.07,0c0-20.27,0-40.53,0-60.82c-2.74,0-5.35,0-8.07,0C-110.76,164.7-110.76,181.43-110.76,198.37z"/>
		<path class="st3" d="M-140.84,158.21c0,0.23,0,0.47,0,0.7c0,16.05,0,32.1,0,48.14c0,0.54-0.05,1.08-0.07,1.63
			c9.05,0,18.11,0,27.16,0c-8.95-16.85-17.9-33.7-26.85-50.55C-140.69,158.16-140.77,158.18-140.84,158.21z"/>
		<path class="st1" d="M-125.42,84.1c0.05-3.98,0.02-7.96,0.01-11.94c-0.06-16.13-0.1-32.25-0.18-48.38c0-0.74-0.03-1.49-0.04-2.23
			v63.49C-125.5,84.73-125.42,84.4-125.42,84.1z"/>
		<path class="st1" d="M-126.31,10.86c-23.42,49.82-46.84,99.64-70.26,149.46c0.11,0.08,0.23,0.16,0.34,0.24
			c0.32-0.39,0.61-0.8,0.95-1.17c5.3-5.64,10.61-11.28,15.92-16.92c9.5-10.09,19-20.17,28.5-30.26
			c8.26-8.78,16.53-17.56,24.76-26.37c0.2-0.21,0.37-0.49,0.49-0.79V21.55c-0.05-3.51-0.15-7.03-0.22-10.55
			C-126,10.95-126.16,10.91-126.31,10.86z"/>
		<linearGradient id="SVGID_2_" gradientUnits="userSpaceOnUse" x1="-53.1611" y1="189.2479" x2="-145.7058" y2="6.3628">
			<stop  offset="0" style="stop-color:#FFFFFF"/>
			<stop  offset="0.0159" style="stop-color:#FFFBF6"/>
			<stop  offset="0.1177" style="stop-color:#FDE3C4"/>
			<stop  offset="0.2244" style="stop-color:#FBCE97"/>
			<stop  offset="0.3341" style="stop-color:#FABC72"/>
			<stop  offset="0.4474" style="stop-color:#F9AD53"/>
			<stop  offset="0.5658" style="stop-color:#F8A23B"/>
			<stop  offset="0.6912" style="stop-color:#F79A2A"/>
			<stop  offset="0.8284" style="stop-color:#F79620"/>
			<stop  offset="1" style="stop-color:#F7941D"/>
		</linearGradient>
		<path class="st4" d="M-45.8,171.4c-0.36-0.98-0.57-2.02-0.99-2.96c-4.78-10.66-9.51-21.34-14.41-31.94
			c-6.54-14.16-13.23-28.26-19.86-42.39c-6.27-13.38-12.52-26.76-18.8-40.12c-6.73-14.3-13.48-28.59-20.22-42.89
			c-1.72-3.64-3.45-7.27-5.26-11.1c-0.11,0.19-0.2,0.34-0.28,0.47v21.08c0.01,0.74,0.03,1.49,0.04,2.23
			c0.08,16.13,0.13,32.25,0.18,48.38c0.01,3.98,0.04,7.96-0.01,11.94c0,0.3-0.08,0.63-0.21,0.94v7.6c0.35,0.29,0.68,0.57,0.98,0.87
			c1.59,1.6,3.18,3.21,4.75,4.84c6.21,6.46,12.44,12.9,18.61,19.4c8.27,8.71,16.49,17.48,24.75,26.2
			c6.91,7.29,13.83,14.57,20.78,21.84c2.37,2.48,4.83,4.88,7.22,7.34c0.79,0.81,1.44,0.26,2.13-0.08
			C-45.68,172.7-45.53,172.15-45.8,171.4z"/>
		<linearGradient id="SVGID_3_" gradientUnits="userSpaceOnUse" x1="-205.5778" y1="87.0402" x2="-125.6265" y2="87.0402">
			<stop  offset="0" style="stop-color:#FFFFFF"/>
			<stop  offset="3.177345e-03" style="stop-color:#FFFEFD"/>
			<stop  offset="0.0685" style="stop-color:#FDE8CE"/>
			<stop  offset="0.1375" style="stop-color:#FCD4A5"/>
			<stop  offset="0.2128" style="stop-color:#FBC380"/>
			<stop  offset="0.2935" style="stop-color:#F9B461"/>
			<stop  offset="0.3813" style="stop-color:#F9A848"/>
			<stop  offset="0.4791" style="stop-color:#F89F35"/>
			<stop  offset="0.5921" style="stop-color:#F79927"/>
			<stop  offset="0.7344" style="stop-color:#F7951F"/>
			<stop  offset="1" style="stop-color:#F7941D"/>
		</linearGradient>
		<path class="st5" d="M-126.12,85.83c-8.23,8.81-16.49,17.59-24.76,26.37c-9.5,10.09-19,20.17-28.5,30.26
			c-5.31,5.64-10.61,11.28-15.92,16.92c-0.34,0.37-0.64,0.78-0.95,1.17c-0.11-0.08-0.23-0.16-0.34-0.24
			c23.42-49.82,46.84-99.64,70.26-149.46c0.16,0.05,0.31,0.1,0.47,0.14c0.07,3.52,0.17,7.03,0.22,10.55V0.47
			c-0.1,0.18-0.19,0.32-0.26,0.46c-3.37,6.9-6.77,13.78-10.08,20.7c-5.77,12.04-11.51,24.1-17.22,36.17
			c-8.74,18.48-17.48,36.96-26.16,55.46c-7.17,15.29-14.3,30.61-21.36,45.96c-1.72,3.74-3.1,7.64-4.68,11.45
			c-0.56,1.36,0.2,1.96,1.17,2.63c1.09,0.75,1.57-0.05,2.16-0.67c9.69-10.19,19.4-20.37,29.08-30.58
			c8.61-9.09,17.18-18.21,25.76-27.32c3.53-3.75,7.06-7.5,10.6-11.23c3.51-3.71,7.04-7.39,10.63-11.16c0.12,0.1,0.24,0.2,0.35,0.3
			v-7.6C-125.75,85.34-125.92,85.62-126.12,85.83z"/>
	</g>
</g>
<g id="Layer_2">
	<g>
		<path class="st0" d="M107.14,213.73c-0.21-0.28-0.29-0.36-0.34-0.46c-3.64-6.86-7.29-13.71-10.93-20.57
			c-5.09-9.58-10.18-19.17-15.24-28.77c-0.32-0.6-0.66-0.83-1.35-0.82c-2.76,0.04-5.52,0.02-8.28,0.02c-0.61,0-1.22,0-1.89,0
			c0,0.58,0,0.96,0,1.33c0,19.48,0,38.97,0,58.45c0,0.38,0.04,0.75,0.07,1.12c2.6,0,5.2,0,7.79,0c0.02-0.54,0.07-1.09,0.07-1.63
			c0-16.05,0-32.1,0-48.14c0-0.23,0-0.47,0-0.7c0.08-0.03,0.15-0.05,0.23-0.08c8.95,16.85,17.9,33.7,26.86,50.55
			c3.69,0,7.38,0,11.06,0c0-20.27,0-40.53,0-60.82c-2.74,0-5.35,0-8.07,0C107.14,180.06,107.14,196.79,107.14,213.73z"/>
		<path class="st6" d="M92.16,6.35v92.64l72.22,75.86c0,0,11.9,12.38,5.27-2.43L92.16,6.35z"/>
		<linearGradient id="SVGID_4_" gradientUnits="userSpaceOnUse" x1="22.5966" y1="81.5807" x2="96.9104" y2="109.8335">
			<stop  offset="0" style="stop-color:#FBB040;stop-opacity:0.3"/>
			<stop  offset="0.3275" style="stop-color:#FBAD3C;stop-opacity:0.5293"/>
			<stop  offset="0.6445" style="stop-color:#FAA431;stop-opacity:0.7511"/>
			<stop  offset="0.9563" style="stop-color:#F89620;stop-opacity:0.9694"/>
			<stop  offset="1" style="stop-color:#F7941D"/>
		</linearGradient>
		<path class="st7" d="M92.16,6.35v92.64l-72.22,75.86c0,0-11.9,12.38-5.27-2.43L92.16,6.35z"/>
	</g>
</g>
</svg>
