<svg id="e189d0ecz7hm1" xmlns="http://www.w3.org/2000/svg" xmlns:xlink="http://www.w3.org/1999/xlink" viewBox="0 0 265 295" shape-rendering="geometricPrecision" text-rendering="geometricPrecision"><style><![CDATA[#e189d0ecz7hm2 {animation: e189d0ecz7hm2_c_o 3000ms linear infinite normal forwards}@keyframes e189d0ecz7hm2_c_o { 0% {opacity: 0.080000} 53.333333% {opacity: 1;animation-timing-function: cubic-bezier(0.680000,-0.550000,0.500000,1.550000)} 100% {opacity: 1} }#e189d0ecz7hm7 {animation: e189d0ecz7hm7_c_o 3000ms linear infinite normal forwards}@keyframes e189d0ecz7hm7_c_o { 0% {opacity: 0;animation-timing-function: cubic-bezier(0.680000,-0.550000,0.500000,1.550000)} 60% {opacity: 1;animation-timing-function: cubic-bezier(0.680000,-0.550000,0.500000,1.550000)} 100% {opacity: 0.684211} }#e189d0ecz7hm12 {animation: e189d0ecz7hm12_c_o 3000ms linear infinite normal forwards}@keyframes e189d0ecz7hm12_c_o { 0% {opacity: 0;animation-timing-function: cubic-bezier(0.680000,-0.550000,0.500000,1.550000)} 66.666667% {opacity: 1;animation-timing-function: cubic-bezier(0.680000,-0.550000,0.500000,1.550000)} 100% {opacity: 1} }#e189d0ecz7hm16 {animation: e189d0ecz7hm16_c_o 3000ms linear infinite normal forwards}@keyframes e189d0ecz7hm16_c_o { 0% {opacity: 0;animation-timing-function: cubic-bezier(0.680000,-0.550000,0.500000,1.550000)} 80% {opacity: 1;animation-timing-function: cubic-bezier(0.680000,-0.550000,0.500000,1.550000)} 100% {opacity: 0.916667} }#e189d0ecz7hm20 {animation: e189d0ecz7hm20_c_o 3000ms linear infinite normal forwards}@keyframes e189d0ecz7hm20_c_o { 0% {opacity: 0;animation-timing-function: cubic-bezier(0.680000,-0.550000,0.500000,1.550000)} 93.333333% {opacity: 1;animation-timing-function: cubic-bezier(0.680000,-0.550000,0.500000,1.550000)} 100% {opacity: 1} }]]></style><g id="e189d0ecz7hm2" opacity="0.08"><path id="e189d0ecz7hm3" d="M57.980000,261.490000C57.980000,275.260000,46.820000,286.420000,33.050000,286.420000C19.280000,286.420000,8.120000,275.260000,8.120000,261.490000C8.120000,247.720000,19.280000,236.560000,33.050000,236.560000C46.810000,236.560000,57.980000,247.720000,57.980000,261.490000Z" fill="rgb(234,147,35)" stroke="none" stroke-width="1"/><path id="e189d0ecz7hm4" d="M122.570000,261.490000C122.570000,273.430000,112.900000,283.100000,100.960000,283.100000C89.030000,283.100000,79.350000,273.430000,79.350000,261.490000C79.350000,249.560000,89.030000,239.890000,100.960000,239.890000C112.900000,239.890000,122.570000,249.560000,122.570000,261.490000Z" fill="rgb(239,150,41)" stroke="none" stroke-width="1"/><path id="e189d0ecz7hm5" d="M188.820000,261.490000C188.820000,272.510000,179.890000,281.440000,168.880000,281.440000C157.870000,281.440000,148.930000,272.510000,148.930000,261.490000C148.930000,250.480000,157.870000,241.550000,168.880000,241.550000C179.890000,241.550000,188.820000,250.480000,188.820000,261.490000Z" fill="rgb(247,172,26)" stroke="none" stroke-width="1"/><path id="e189d0ecz7hm6" d="M253.410000,261.490000C253.410000,270.670000,245.970000,278.110000,236.790000,278.110000C227.610000,278.110000,220.170000,270.670000,220.170000,261.490000C220.170000,252.310000,227.610000,244.870000,236.790000,244.870000C245.970000,244.870000,253.410000,252.310000,253.410000,261.490000Z" opacity="0.6" fill="rgb(247,172,26)" stroke="none" stroke-width="1"/></g><g id="e189d0ecz7hm7" opacity="0"><path id="e189d0ecz7hm8" d="M75.740000,201.990000C75.740000,213.930000,66.060000,223.600000,54.130000,223.600000C42.190000,223.600000,32.520000,213.930000,32.520000,201.990000C32.520000,190.060000,42.190000,180.390000,54.130000,180.390000C66.060000,180.390000,75.740000,190.060000,75.740000,201.990000Z" fill="rgb(239,150,41)" stroke="none" stroke-width="1"/><path id="e189d0ecz7hm9" d="M131.810000,201.990000C131.810000,212.090000,123.620000,220.280000,113.530000,220.280000C103.430000,220.280000,95.250000,212.090000,95.250000,201.990000C95.250000,191.900000,103.430000,183.710000,113.530000,183.710000C123.620000,183.710000,131.810000,191.900000,131.810000,201.990000Z" fill="rgb(247,172,26)" stroke="none" stroke-width="1"/><path id="e189d0ecz7hm10" d="M179.570000,201.990000C179.570000,210.250000,172.870000,216.950000,164.610000,216.950000C156.350000,216.950000,149.650000,210.250000,149.650000,201.990000C149.650000,193.730000,156.350000,187.030000,164.610000,187.030000C172.870000,187.040000,179.570000,193.730000,179.570000,201.990000Z" opacity="0.8" fill="rgb(247,172,26)" stroke="none" stroke-width="1"/><path id="e189d0ecz7hm11" d="M229,202C229,209.340000,223.040000,215.300000,215.700000,215.300000C208.360000,215.300000,202.410000,209.350000,202.410000,202C202.410000,194.660000,208.360000,188.710000,215.700000,188.710000C223.040000,188.700000,229,194.650000,229,202Z" opacity="0.6" fill="rgb(247,172,26)" stroke="none" stroke-width="1"/></g><g id="e189d0ecz7hm12" opacity="0"><path id="e189d0ecz7hm13" d="M100.770000,142.920000C100.770000,153.020000,92.580000,161.210000,82.490000,161.210000C72.390000,161.210000,64.210000,153.020000,64.210000,142.920000C64.210000,132.830000,72.390000,124.640000,82.490000,124.640000C92.580000,124.640000,100.770000,132.830000,100.770000,142.920000Z" fill="rgb(247,172,26)" stroke="none" stroke-width="1"/><path id="e189d0ecz7hm14" d="M149.880000,142.920000C149.880000,151.180000,143.190000,157.880000,134.920000,157.880000C126.650000,157.880000,119.960000,151.180000,119.960000,142.920000C119.960000,134.660000,126.650000,127.960000,134.920000,127.960000C143.180000,127.960000,149.880000,134.660000,149.880000,142.920000Z" opacity="0.8" fill="rgb(247,172,26)" stroke="none" stroke-width="1"/><path id="e189d0ecz7hm15" d="M198.980000,142.920000C198.980000,149.350000,193.770000,154.560000,187.350000,154.560000C180.920000,154.560000,175.720000,149.350000,175.720000,142.920000C175.720000,136.500000,180.930000,131.290000,187.350000,131.290000C193.770000,131.290000,198.980000,136.500000,198.980000,142.920000Z" opacity="0.6" fill="rgb(247,172,26)" stroke="none" stroke-width="1"/></g><g id="e189d0ecz7hm16" opacity="0"><path id="e189d0ecz7hm17" d="M123.950000,84.130000C123.950000,92.390000,117.250000,99.090000,108.990000,99.090000C100.730000,99.090000,94.030000,92.390000,94.030000,84.130000C94.030000,75.870000,100.720000,69.170000,108.990000,69.170000C117.250000,69.180000,123.950000,75.870000,123.950000,84.130000Z" opacity="0.8" fill="rgb(247,172,26)" stroke="none" stroke-width="1"/><path id="e189d0ecz7hm18" d="M170.810000,84.130000C170.810000,89.640000,166.350000,94.100000,160.840000,94.100000C155.330000,94.100000,150.870000,89.640000,150.870000,84.130000C150.870000,78.620000,155.330000,74.160000,160.840000,74.160000C166.350000,74.160000,170.810000,78.630000,170.810000,84.130000Z" opacity="0.6" fill="rgb(247,172,26)" stroke="none" stroke-width="1"/></g><g id="e189d0ecz7hm19"><path id="e189d0ecz7hm20" d="M146.550000,25.650000C146.550000,32.080000,141.340000,37.290000,134.920000,37.290000C128.490000,37.290000,123.290000,32.080000,123.290000,25.650000C123.290000,19.230000,128.500000,14.020000,134.920000,14.020000C141.340000,14.020000,146.550000,19.230000,146.550000,25.650000Z" opacity="0" fill="rgb(247,172,26)" stroke="none" stroke-width="1"/></g></svg>